<?xml version="1.0" encoding="UTF-8" standalone="no"?><!DOCTYPE svg PUBLIC "-//W3C//DTD SVG 1.1//EN" "http://www.w3.org/Graphics/SVG/1.1/DTD/svg11.dtd"><svg width="100%" height="100%" viewBox="0 0 132 132" version="1.1" xmlns="http://www.w3.org/2000/svg" xmlns:xlink="http://www.w3.org/1999/xlink" xml:space="preserve" xmlns:serif="http://www.serif.com/" style="fill-rule:evenodd;clip-rule:evenodd;stroke-linejoin:round;stroke-miterlimit:2;"><rect id="ICONS-SVG" serif:id="ICONS SVG" x="0" y="0" width="131.067" height="131.086" style="fill:none;"/><g id="icon_mail"><path d="M7.664,35.298l2.39,27.015c0.406,5.316 -2.013,21.435 -1.663,31.003c0.119,3.274 0.631,5.901 1.421,7.47c0.677,1.343 1.621,2.175 2.622,2.644c2.334,1.09 16.658,2.368 33.136,3.118c18.128,0.825 38.925,1.214 48.306,0.931c11.064,-0.378 19.38,-2.591 24.544,-5.799c4.796,-2.98 7.199,-6.895 7.463,-11.134c0.122,-2.115 0.502,-8.029 0.529,-15.536c0.017,-4.759 -0.11,-10.154 -0.518,-15.629c-0.425,-5.567 -1.081,-11.195 -1.765,-16.153c-0.786,-5.693 -1.6,-10.502 -2.103,-13.321c0.07,-0.8 -0.077,-1.486 -0.375,-2.056c-0.077,-0.411 -0.12,-0.63 -0.12,-0.63c-0.322,-1.742 -1.808,-3.03 -3.579,-3.099c0,-0 -34.558,-1.002 -64.444,-0.279l-10.735,-0.327c-0.024,-0.001 -0.049,-0.001 -0.074,-0.001c0,0 -23.413,-0.06 -31.819,1.421c-2.13,0.375 -3.6,1.013 -4.302,1.521c-1.146,0.83 -1.624,1.853 -1.821,2.761c-0.226,1.037 -0.1,2.125 0.571,3.233c0.319,0.523 1.145,1.522 2.336,2.847Zm71.997,33.409c-1.875,1.311 -3.671,2.531 -5.349,3.63c-5.605,3.675 -10.104,5.96 -12.117,6.339c-3.783,0.71 -7.903,-0.575 -11.965,-3.159c-1.188,-0.756 -2.377,-1.63 -3.556,-2.578c-1.724,1.604 -4.465,4.107 -7.698,6.888c-2.074,1.784 -4.321,3.7 -6.69,5.469c-2.369,1.77 -4.844,3.38 -7.144,4.863c-4.273,2.755 -7.969,4.951 -9.827,6.034c0.108,0.464 0.261,0.948 0.362,1.245c0.887,0.205 2.556,0.334 4.792,0.528c5.92,0.514 15.223,0.899 25.372,1.182c17.921,0.499 38.469,0.646 47.732,0.231c7.607,-0.312 13.697,-1.511 18.045,-3.435l0.145,-0.065c-2.022,-0.976 -4.066,-2.201 -6.064,-3.586c-3.163,-2.191 -6.213,-4.755 -8.763,-7.297c-3.446,-3.435 -5.952,-6.778 -7.295,-8.314c-1.683,-2.078 -3.483,-3.728 -5.187,-4.992c-1.916,-1.421 -3.641,-2.397 -4.793,-2.983Zm8.807,17.751c0,0 -0.855,0.055 -2.09,0.307c-0.432,0.087 -0.88,0.21 -1.358,0.375c-0.442,0.153 -0.889,0.346 -1.31,0.591c-0.288,0.167 -0.557,0.365 -0.807,0.579c-0.341,0.293 -0.661,0.584 -0.924,0.922c-0.819,1.053 -1.406,2.078 -1.348,3.186c-0.11,0.662 0.338,1.29 1.001,1.4c0.663,0.111 1.29,-0.338 1.401,-1c0.136,-0.328 0.516,-0.435 0.84,-0.678c0.282,-0.212 0.627,-0.331 0.962,-0.524c0.343,-0.196 0.71,-0.366 1.054,-0.575c0.458,-0.278 0.873,-0.595 1.28,-0.868c1.169,-0.784 2.015,-1.388 2.015,-1.388c0.642,-0.197 1.003,-0.879 0.806,-1.521c-0.198,-0.642 -0.88,-1.003 -1.522,-0.806Zm27.228,-47.195c-0.739,0.766 -1.535,1.561 -2.382,2.376c-7.26,6.987 -18.335,15.937 -28.309,23.239c0.896,0.378 1.864,0.827 2.877,1.361c2.347,1.237 4.851,2.994 7.299,5.273c1.091,1.075 3.037,3.006 5.39,5.38c1.083,1.094 2.259,2.277 3.469,3.522c2.737,2.815 5.712,5.862 8.808,8.285c1.459,1.142 2.891,2.196 4.308,3.009c0.259,-0.518 0.413,-1.071 0.447,-1.664c0.131,-2.054 0.52,-7.8 0.602,-15.095c0.051,-4.568 -0.013,-9.748 -0.355,-15.007c-0.342,-5.408 -0.915,-10.877 -1.507,-15.699c-0.216,-1.757 -0.435,-3.429 -0.647,-4.98Zm-102.178,2.19l2.332,20.349c0.413,4.111 -0.652,14.627 -0.943,23.711c-0.041,1.291 -0.067,2.551 -0.067,3.753c1.586,-1.448 3.576,-3.227 5.798,-5.139c2.074,-1.784 4.321,-3.7 6.69,-5.469c2.37,-1.769 4.845,-3.38 7.144,-4.862c3.01,-1.94 5.733,-3.603 7.729,-4.796c-3.501,-3.303 -6.759,-6.784 -9.442,-9.163c-3.655,-3.288 -10.599,-9.814 -16.516,-15.66c-0.94,-0.927 -1.853,-1.84 -2.725,-2.724Zm85.023,-10.536l-55.796,0.074c-0,0 -17.022,0.262 -26.69,1.36c1.682,1.704 3.771,3.758 5.989,5.94c5.837,5.741 12.609,12.23 16.194,15.481c3.782,3.477 8.729,9.35 13.883,13.503c2.996,2.413 5.913,4.46 8.778,3.994c0.888,-0.144 2.406,-0.917 4.422,-2.015c5.086,-2.771 12.544,-7.632 20.247,-13.093c10.972,-7.778 22.442,-16.749 28.183,-22.754c0.322,-0.337 0.637,-0.695 0.935,-1.052c-0.043,-0.281 -0.085,-0.548 -0.126,-0.801c-3.278,-0.147 -8.956,-0.39 -16.019,-0.637Zm-47.656,19.082l0,-0.001c0,-0 0.026,0.016 0.03,0.044c0.005,0.029 0.097,0.049 0.095,0.135c-0.002,0.06 0.166,0.104 0.122,0.206c-0.012,0.03 0.072,0.056 0.05,0.09c-0.023,0.036 0.165,0.135 0.124,0.086c-0.039,-0.047 0.13,0.017 0.197,-0.025c0.156,-0.097 0.38,-0.098 0.633,-0.22c0.155,-0.074 0.332,-0.139 0.513,-0.247c0.167,-0.1 0.325,-0.231 0.504,-0.372c0.49,-0.386 0.918,-0.872 1.617,-1.396c0.632,-0.23 0.958,-0.929 0.728,-1.56c-0.229,-0.631 -0.928,-0.958 -1.559,-0.728c-0.669,0.02 -1.178,0.056 -1.709,0.134c-0.435,0.065 -0.798,0.162 -1.135,0.293c-0.353,0.136 -0.647,0.317 -0.889,0.502c-0.352,0.27 -0.618,0.524 -0.811,0.79c-0.39,0.535 -0.666,0.893 -0.754,1.276c-0.159,0.698 -0.301,1.113 -0.167,1.446c0.149,0.37 0.17,0.623 0.271,0.72c0.65,0.625 1.113,0.697 1.113,0.697c-0.64,0.017 0.116,0.168 0.675,-0.204c0.552,-0.368 0.707,-1.11 0.352,-1.666Zm-6.689,-3.455c0,0 1.423,-0.967 3.503,-2.266c0.72,-0.451 1.52,-0.922 2.352,-1.438c0.625,-0.388 1.27,-0.789 1.918,-1.202c0.629,-0.401 1.245,-0.824 1.88,-1.214c1.407,-0.866 2.781,-1.674 4.188,-2.058c0.664,-0.102 1.12,-0.724 1.018,-1.388c-0.102,-0.664 -0.724,-1.12 -1.388,-1.018c-1.736,0.067 -3.59,0.513 -5.419,1.238c-1.116,0.443 -2.213,0.982 -3.215,1.618c-1.047,0.665 -1.982,1.429 -2.809,2.159c-2.288,2.021 -3.693,3.793 -3.693,3.793c-0.49,0.46 -0.515,1.23 -0.055,1.721c0.459,0.49 1.23,0.515 1.72,0.055Z" style="fill:#fff;"/></g></svg>