<?xml version="1.0" encoding="UTF-8" standalone="no"?><!DOCTYPE svg PUBLIC "-//W3C//DTD SVG 1.1//EN" "http://www.w3.org/Graphics/SVG/1.1/DTD/svg11.dtd"><svg width="100%" height="100%" viewBox="0 0 132 132" version="1.1" xmlns="http://www.w3.org/2000/svg" xmlns:xlink="http://www.w3.org/1999/xlink" xml:space="preserve" xmlns:serif="http://www.serif.com/" style="fill-rule:evenodd;clip-rule:evenodd;stroke-linejoin:round;stroke-miterlimit:2;"><rect id="ICONS-SVG" serif:id="ICONS SVG" x="0" y="0" width="131.067" height="131.086" style="fill:none;"/><g id="icon_tinder"><path d="M43.919,28.044c0.142,-1.099 -0.449,-2.161 -1.456,-2.621c-1.008,-0.46 -2.197,-0.21 -2.934,0.616c-0,0 -4.317,4.726 -8.949,10.134c-1.973,2.304 -4.001,4.732 -5.781,6.973c-2.936,3.702 -5.696,9.381 -7.842,15.18c-2.25,6.084 -3.813,12.295 -4.27,16.414c-0.589,5.346 -2.07,24.963 11.759,39.217c7.41,7.638 19.252,13.81 38.169,15.23c20.106,1.439 33.837,-6.196 42.733,-17.689c7.125,-9.205 11.098,-20.996 12.634,-32.683c1.705,-12.98 0.389,-25.812 -2.632,-34.743c-2.777,-8.147 -7.949,-15.299 -13.905,-21.261c-13.396,-13.408 -30.586,-20.793 -30.586,-20.793c-1.293,-0.568 -2.8,-0.296 -3.812,0.689c-1.011,0.985 -1.324,2.485 -0.79,3.792c4.231,10.065 3.339,19.01 0.151,26.089c-2.917,6.475 -7.678,11.412 -12.112,14.217c-2.506,1.585 -4.83,2.547 -6.562,2.452c-0.944,-0.052 -1.572,-0.685 -2.07,-1.522c-0.684,-1.15 -1.137,-2.63 -1.453,-4.236c-1.324,-6.725 -0.292,-15.455 -0.292,-15.455Zm-5.573,7.177c-0.089,3.934 0.119,8.623 1.226,12.245c1.316,4.309 3.929,7.158 7.784,7.46c2.593,0.203 6.223,-0.818 10.033,-3.112c5.339,-3.215 11.133,-8.95 14.757,-16.57c3.087,-6.49 4.599,-14.344 2.924,-23.183c5.706,3.31 13.945,8.764 20.994,16.043c5.058,5.223 9.515,11.398 11.814,18.458c4.213,12.772 4.261,34.333 -3.734,51.209c-6.747,14.241 -19.476,25.037 -41.014,23.697c-16.539,-0.965 -27.054,-5.938 -33.647,-12.488c-12.122,-12.043 -10.951,-29.005 -10.536,-33.614c0.335,-3.764 1.671,-9.449 3.602,-15.04c1.806,-5.229 4.11,-10.389 6.664,-13.757c1.689,-2.231 3.616,-4.651 5.491,-6.949c1.268,-1.553 2.512,-3.052 3.642,-4.4l-0,0.001Zm20.935,78.514c0,0 1.164,1.218 4.515,1.85c0.846,0.16 1.843,0.277 2.998,0.22c0.88,-0.044 1.846,-0.205 2.896,-0.47c1.254,-0.315 2.578,-0.799 4.083,-1.409c0.651,-0.163 1.048,-0.825 0.885,-1.476c-0.163,-0.652 -0.824,-1.049 -1.476,-0.886c-1.021,0.098 -1.94,0.121 -2.82,0.166c-1.009,0.053 -1.912,0.044 -2.746,0.075c-0.642,0.023 -1.231,0.06 -1.775,0.09c-0.649,0.035 -1.223,0.088 -1.745,0.102c-2.381,0.066 -3.4,-0.243 -3.4,-0.243c-0.547,-0.39 -1.308,-0.263 -1.698,0.283c-0.39,0.547 -0.264,1.308 0.283,1.698Zm-32.335,-46.71c-0,0 -2.825,7.737 -1.909,17.262c0.354,3.681 1.264,7.633 3.136,11.432c1.648,3.345 4.047,6.574 7.344,9.413c3.815,3.285 8.864,6.036 15.467,7.9c0.848,0.283 1.766,-0.176 2.049,-1.025c0.282,-0.848 -0.177,-1.766 -1.025,-2.049c-4.696,-1.822 -8.382,-4.111 -11.348,-6.611c-2.096,-1.766 -3.781,-3.666 -5.176,-5.618c-1.016,-1.422 -1.85,-2.883 -2.58,-4.341c-2.09,-4.176 -3.092,-8.448 -3.47,-12.307c-0.718,-7.348 0.612,-13.116 0.612,-13.116c0.259,-0.856 -0.225,-1.761 -1.08,-2.02c-0.856,-0.259 -1.761,0.225 -2.02,1.08Z" style="fill:#fff;"/></g></svg>