<?xml version="1.0" encoding="UTF-8" standalone="no"?><!DOCTYPE svg PUBLIC "-//W3C//DTD SVG 1.1//EN" "http://www.w3.org/Graphics/SVG/1.1/DTD/svg11.dtd"><svg width="100%" height="100%" viewBox="0 0 176 178" version="1.1" xmlns="http://www.w3.org/2000/svg" xmlns:xlink="http://www.w3.org/1999/xlink" xml:space="preserve" xmlns:serif="http://www.serif.com/" style="fill-rule:evenodd;clip-rule:evenodd;stroke-linejoin:round;stroke-miterlimit:2;"><rect id="ICONS-SVG-BLUE" serif:id="ICONS SVG BLUE" x="0" y="0" width="176" height="178" style="fill:none;"/><clipPath id="_clip1"><rect x="0" y="0" width="176" height="178"/></clipPath><g clip-path="url(#_clip1)"><path d="M87.594,0.286c65.205,-4.269 88.406,39.856 88.406,88.849c0,48.993 -29.665,91.97 -84.913,88.689c-45.833,-2.722 -92.397,-27.685 -91.059,-90.268c0.614,-28.7 24.221,-83.122 87.566,-87.27Z" style="fill:#444e87;"/><g id="blue_icon_bank"><path d="M53.83,35.564l11.15,0.471l27.64,0.315l23.714,1.256l-13.035,15.547l-0.157,16.333l18.06,13.035l15.233,17.117l-2.827,18.06l-9.893,12.564l-25.127,11.621l-31.095,-3.141l-19.945,-11.778l-6.596,-13.192l-0.471,-19.002l12.25,-16.804l18.502,-10.716l2.542,-7.03l-4.241,-9.108l-10.679,-7.538c0,-0 -6.438,-4.712 -5.025,-8.01Z" style="fill:#2b3465;"/><g><path d="M80.941,121.515l-0.002,-0l-0.101,-0.74c-0.102,0.018 -0.23,0.04 -0.384,0.066c-0.186,0.032 -0.377,0.049 -0.571,0.053c-0.195,-0.003 -0.338,0 -0.443,0.006c-0.415,-0.005 -0.992,-0.097 -1.728,-0.261c-0.008,-0.002 -0.016,-0.004 -0.024,-0.005c-0.531,-0.107 -1.124,-0.156 -1.778,-0.143c-0.661,0.014 -1.314,0.112 -1.959,0.297c-0.894,0.256 -1.405,0.725 -1.577,1.374c-0.158,0.59 0.028,1.134 0.6,1.622c0.595,0.508 1.736,0.974 3.47,1.323c3.939,0.861 7.969,0.699 12.09,-0.499c0.281,1.976 0.587,3.9 0.92,5.773l0.079,0.296c0.019,0.069 0.05,0.136 0.093,0.198c0.567,0.815 1.797,1.36 3.8,1.448c1.373,0.073 2.281,-0.163 2.772,-0.536c0.439,-0.332 0.659,-0.786 0.572,-1.384c-0.001,-0.004 -0.001,-0.008 -0.002,-0.012c-0.46,-2.776 -0.927,-5.666 -1.401,-8.669c0.653,-0.373 1.282,-0.77 1.887,-1.192c6.735,-4.437 9.446,-8.75 8.378,-12.834c-0.769,-3.184 -4.432,-5.914 -11.17,-8.033c-0.617,-0.201 -1.283,-0.393 -1.998,-0.577c-0.308,-2.963 -0.559,-5.804 -0.752,-8.523c-0.002,-0.03 -0.007,-0.059 -0.013,-0.089c-0.002,-0.01 -0.047,-0.455 -0.102,-1.105l0,-0c2.204,-0.601 4.437,-1.019 6.699,-1.256c0.004,-0.001 0.009,-0.001 0.014,-0.002c0.987,-0.115 1.771,-0.396 2.367,-0.819c0.36,-0.254 0.56,-0.541 0.636,-0.844c0.103,-0.406 -0.017,-0.876 -0.486,-1.379c-0.555,-0.597 -1.433,-1.078 -2.664,-1.406c-1.175,-0.312 -2.246,-0.401 -3.21,-0.285c-1.27,0.15 -2.546,0.34 -3.827,0.569c-0.094,-1.623 -0.21,-3.257 -0.348,-4.902c0,-0.035 -0.008,-0.09 -0.024,-0.148l-0.074,-0.266c-0.011,-0.034 -0.026,-0.068 -0.044,-0.101c-0.432,-0.806 -1.574,-1.399 -3.575,-1.552c-0.003,-0.001 -0.005,-0.001 -0.008,-0.001c-1.701,-0.119 -2.734,0.231 -3.198,0.761c-0.25,0.286 -0.382,0.643 -0.348,1.078c0.12,2.059 0.275,4.331 0.466,6.815c-0.365,0.101 -0.708,0.206 -1.028,0.315c-0.805,0.267 -1.456,0.498 -1.953,0.691c-0.491,0.19 -1.126,0.448 -1.906,0.774c-0.819,0.341 -1.497,0.672 -2.038,0.988c-0.545,0.319 -1.1,0.708 -1.664,1.166c-0.587,0.477 -1.051,0.958 -1.397,1.441c-0.002,0.003 -0.005,0.006 -0.007,0.009c-0.833,1.204 -1.159,2.34 -1.019,3.401c0.142,1.077 0.607,2 1.381,2.773c0.721,0.721 1.705,1.412 2.959,2.064c1.205,0.628 2.35,1.133 3.433,1.519c1.071,0.381 2.23,0.726 3.474,1.035c0.339,0.095 0.781,0.212 1.315,0.348c0.606,5.49 1.28,10.874 2.021,16.152c-0.645,0.383 -1.305,0.714 -1.979,0.993c-0.011,0.005 -0.023,0.01 -0.034,0.015c-1.526,0.697 -2.986,1.169 -4.385,1.408c-0.185,0.031 -0.305,0.052 -0.305,0.052l0.1,0.74Zm12.146,-17.073c0.25,0.099 0.504,0.214 0.762,0.345l0.509,0.118c0,-0 -0.507,-0.117 -0.507,-0.117l0.299,0.148c0.188,0.129 0.439,0.304 0.749,0.526l0.226,0.126c0.081,0.065 0.16,0.135 0.242,0.213c0.002,0.002 0.347,0.46 0.347,0.46l0.191,0.235c0.013,0.027 0.029,0.053 0.046,0.078c0.37,0.532 0.55,1.113 0.546,1.744c0,0.003 0,0.006 0,0.009c0.017,1.585 -0.763,3.209 -2.296,4.886c-0.387,-2.875 -0.758,-5.799 -1.114,-8.771Zm-8.109,-7.395c-1.079,-0.348 -1.841,-0.703 -2.252,-1.105c-0.007,-0.006 -0.013,-0.012 -0.02,-0.018c-0.686,-0.628 -0.641,-1.399 -0.025,-2.31c0,-0.001 0,-0.001 0.001,-0.002c0.372,-0.554 0.99,-1.068 1.839,-1.555l0.457,4.99Z" style="fill:#fff;fill-rule:nonzero;"/><path d="M69.858,54.606c-0.745,0.29 -1.206,1.075 -1.06,1.891c0.167,0.927 1.055,1.545 1.982,1.378c-0,0 0.479,-0.042 1.334,-0.111c0.014,0.209 0.022,0.431 0.027,0.662c-0.508,0.039 -0.786,0.063 -0.786,0.063c-0.681,0.01 -1.226,0.572 -1.216,1.253c0.006,0.397 0.199,0.748 0.494,0.97c-0.143,0.178 -0.238,0.398 -0.264,0.641c-0.072,0.678 0.42,1.287 1.098,1.359c0,-0 0.183,0.032 0.522,0.088c-0.032,0.426 -0.065,0.813 -0.096,1.144c-0.75,0.108 -1.17,0.174 -1.17,0.174c-0.94,0.06 -1.654,0.872 -1.594,1.812c0.018,0.284 0.105,0.548 0.244,0.775c-0.552,0.345 -1.218,0.726 -2.021,1.135c-1.577,0.804 -3.619,1.665 -6.253,2.544c-6.329,2.113 -14.331,7.652 -19.691,15.859c-4.361,6.679 -6.952,15.106 -5.605,24.848c1.269,9.176 6.476,16.701 14.024,22.44c9.551,7.263 22.934,11.6 36.471,12.822c11.288,0.992 22.371,-1.736 31.405,-6.781c10.682,-5.965 18.442,-15.186 20.72,-25.176c1.901,-8.483 0.613,-15.284 -2.369,-20.932c-4.479,-8.484 -13.01,-14.293 -20.272,-19.294c-3.065,-2.111 -5.874,-4.055 -7.853,-6.087c-0.602,-0.618 -1.134,-1.223 -1.53,-1.848c0.106,-0.053 0.207,-0.117 0.302,-0.193c0.736,-0.589 0.855,-1.664 0.267,-2.399c-0.05,-0.072 -0.157,-0.168 -0.324,-0.274c0.036,-0.212 0.017,-0.435 -0.067,-0.65c-0.186,-0.478 -0.637,-0.774 -1.12,-0.787c-0.041,-0.308 -0.084,-0.623 -0.127,-0.94c0.287,0.004 0.526,0.014 0.712,0.029c0.676,0.086 1.296,-0.392 1.382,-1.068c0.087,-0.676 -0.392,-1.296 -1.068,-1.382c-0.302,-0.053 -0.742,-0.11 -1.298,-0.169c-0.038,-0.561 -0.088,-1.099 0.015,-1.549c0.387,0.079 0.762,0.169 1.121,0.27c0.889,0.311 1.864,-0.158 2.175,-1.048c0.31,-0.889 -0.159,-1.863 -1.048,-2.174c-0.202,-0.085 -0.409,-0.167 -0.62,-0.247c0.926,-1.639 2.151,-3.62 3.523,-5.371c1.21,-1.545 2.46,-2.981 3.782,-3.493c2.958,-1.144 4.371,-2.189 5.087,-3.112c1.133,-1.459 1.244,-2.943 0.861,-5.213c-0.232,-1.457 -1.456,-2.55 -2.93,-2.616l-30.071,-0.885c-2.326,-0.033 -4.029,0.086 -5.351,0.269c-1.417,0.196 -2.414,0.458 -3.267,0.699c-1.026,0.29 -1.73,0.564 -3.239,0.338c-1.442,-0.216 -2.669,-1.043 -4.107,-1.487c-0.859,-0.265 -1.765,-0.449 -2.756,-0.463c-0.651,-0.009 -1.245,0.094 -1.797,0.289c-0.539,0.19 -1.04,0.458 -1.517,0.766c-0.212,0.138 -0.42,0.282 -0.63,0.418c-0.097,0.062 -0.148,0.203 -0.27,0.204c-1.373,0.013 -2.486,-0.876 -3.577,-1.184c-0.665,-0.188 -1.321,-0.283 -1.975,-0.237c-2.166,0.151 -3.876,0.412 -4.893,0.759c-0.894,0.304 -1.5,0.748 -1.893,1.202c-0.398,0.372 -1.021,1.172 -1.067,2.538c-0.028,0.837 0.146,2.099 1.363,3.75c1.048,1.42 3.004,3.346 5.81,5.576c2.461,1.955 5.593,4.181 9.319,6.558c0.984,0.627 1.926,1.126 2.752,1.647Zm29.405,11.994c-0.964,0.082 -2.006,0.172 -3.105,0.263c-2.424,0.201 -5.101,0.466 -7.791,0.605c-2.376,0.123 -4.755,0.15 -6.958,0.164c-2.598,0.017 -3.855,0.119 -5.664,0.092c-0.728,0.837 -2.323,2.195 -4.389,3.45c-1.841,1.119 -5.163,2.516 -8.816,3.838c-5.512,1.996 -12.38,6.592 -16.917,13.913c-3.594,5.799 -5.687,13.043 -4.351,21.348c1.226,7.623 5.803,13.725 12.186,18.384c8.812,6.433 17.452,9.649 29.777,10.548c9.876,0.746 21.998,-1.556 29.854,-6.037c8.727,-4.977 15.288,-12.379 17.111,-20.594c1.46,-6.466 0.563,-11.655 -1.685,-15.974c-4.676,-8.984 -13.517,-14.195 -20.396,-19.356c-4.562,-3.423 -7.834,-6.912 -8.856,-10.644Zm-0.646,-5.436c-0.91,0.032 -1.871,0.066 -2.866,0.099c-1.224,0.041 -2.497,0.088 -3.794,0.125c0.354,0.031 0.706,0.062 1.055,0.092c2.03,0.177 3.97,0.354 5.699,0.481c-0.031,-0.262 -0.063,-0.529 -0.094,-0.797Zm-0.139,-4.841c-0.847,-0.001 -1.714,0.014 -2.593,0.039c-1.633,0.046 -3.301,0.154 -4.973,0.247c-1.685,0.094 -3.367,0.196 -5.003,0.287c-2.13,0.119 -4.176,0.215 -6.043,0.327c-1.292,0.077 -2.496,0.155 -3.576,0.23c0.014,0.221 0.023,0.449 0.029,0.682c1.584,-0.099 3.458,-0.204 5.488,-0.293c2.201,-0.098 4.583,-0.184 6.973,-0.19c2.38,-0.005 4.763,0.079 6.98,0.165c0.905,0.035 1.782,0.074 2.62,0.116c-0,-0.058 0,-0.116 0.001,-0.174c0.007,-0.494 0.039,-0.974 0.097,-1.436Zm1.602,-4.286c1.119,-2.036 2.967,-5.135 5.099,-7.77c1.512,-1.87 3.189,-3.489 4.853,-4.532l-23.218,-1.12c-6.074,-0.215 -7.345,0.869 -9.344,1.1c-0.887,0.102 -1.878,0.108 -3.228,-0.124c-1.705,-0.292 -3.174,-1.21 -4.867,-1.773c-0.395,-0.132 -0.81,-0.24 -1.269,-0.256c-0.362,-0.013 -0.568,0.31 -0.839,0.483c-0.459,0.291 -0.922,0.561 -1.416,0.75c-0.573,0.22 -1.177,0.357 -1.838,0.349c-0.596,-0.007 -1.168,-0.086 -1.718,-0.225c-0.892,-0.227 -1.723,-0.605 -2.512,-0.954c-0.36,-0.16 -0.674,-0.389 -1.019,-0.372c-1.07,0.052 -2.194,0.201 -2.923,0.314l0.059,0.089c0.858,1.217 2.51,2.842 4.837,4.775c2.317,1.925 5.515,3.578 9.035,5.936c1.79,1.2 3.192,2.594 4.362,3.739c0.303,0.298 0.582,0.612 0.833,0.949c1.719,-0.359 3.81,-0.753 6.122,-1.104c2.303,-0.35 4.821,-0.66 7.399,-0.791c2.502,-0.127 5.054,-0.072 7.505,0.1c1.405,0.099 2.775,0.244 4.087,0.437Zm13.867,-14.137l0.067,0.21l-0.163,0.073c0.015,-0.093 0.051,-0.196 0.096,-0.283Zm0.331,-0.045l-0.161,-0.143c0.035,-0.014 0.07,-0.007 0.102,0.026c0.04,0.04 0.059,0.079 0.059,0.117Z" style="fill:#fff;"/></g></g></g></svg>