<?xml version="1.0" encoding="UTF-8" standalone="no"?><!DOCTYPE svg PUBLIC "-//W3C//DTD SVG 1.1//EN" "http://www.w3.org/Graphics/SVG/1.1/DTD/svg11.dtd"><svg width="100%" height="100%" viewBox="0 0 176 178" version="1.1" xmlns="http://www.w3.org/2000/svg" xmlns:xlink="http://www.w3.org/1999/xlink" xml:space="preserve" xmlns:serif="http://www.serif.com/" style="fill-rule:evenodd;clip-rule:evenodd;stroke-linejoin:round;stroke-miterlimit:2;"><rect id="ICONS-SVG-BLUE" serif:id="ICONS SVG BLUE" x="0" y="0" width="176" height="178" style="fill:none;"/><clipPath id="_clip1"><rect x="0" y="0" width="176" height="178"/></clipPath><g clip-path="url(#_clip1)"><path d="M87.594,0.286c65.205,-4.269 88.406,39.856 88.406,88.849c0,48.993 -29.665,91.97 -84.913,88.689c-45.833,-2.722 -92.397,-27.685 -91.059,-90.268c0.614,-28.7 24.221,-83.122 87.566,-87.27Z" style="fill:#444e87;"/><g id="blue_icon_calculator"><path d="M125.556,44.085c-0.06,-1.513 -1.284,-2.741 -2.867,-2.741c-21.536,-2.067 -41.711,-2.015 -68.084,-0.228c-1.58,0.107 -2.867,1.227 -2.867,2.74c-0,26.094 -0.088,59.787 -2.393,87.915c-0.123,1.508 1.284,2.74 2.867,2.74c28.042,2.719 53.22,3.447 72.391,-0c1.559,-0.281 2.867,-1.227 2.867,-2.74c1.22,-28.062 -0.716,-57.312 -1.914,-87.686Z" style="fill:#a25888;"/><path d="M123.058,36.89l0.039,0.002c-11.484,-1.386 -22.589,-2.167 -34.456,-2.41c-10.607,-0.216 -21.809,0.02 -34.427,0.598c-2.644,0.124 -4.932,1.438 -6.456,3.22c-1.285,1.502 -1.981,3.424 -2.018,5.556c-0.228,15.727 -0.609,34.214 -1.331,52.573c-0.468,11.906 -1.048,23.757 -2.014,34.746c-0.204,2.557 0.587,4.946 2.14,6.832c1.71,2.078 4.406,3.528 7.347,3.616c15.677,1.373 30.478,2.183 43.85,1.927c11.033,-0.211 21.105,-1.136 29.932,-2.868c2.321,-0.462 4.368,-1.585 5.698,-3.137c1.342,-1.567 2.194,-3.482 2.156,-5.763c0.278,-11.555 0.049,-23.299 -0.484,-35.237c-0.766,-17.156 -2.124,-34.69 -3.215,-52.636c-0.031,-1.965 -0.906,-3.727 -2.22,-5.032c-1.161,-1.153 -2.75,-1.862 -4.541,-1.987Zm2.498,7.195c-0.06,-1.513 -1.284,-2.741 -2.867,-2.741c-21.536,-2.067 -41.711,-2.015 -68.084,-0.228c-1.58,0.107 -2.867,1.227 -2.867,2.74c-0,26.094 -0.088,59.787 -2.393,87.915c-0.123,1.508 1.284,2.74 2.867,2.74c28.042,2.719 53.22,3.447 72.391,-0c1.559,-0.281 2.867,-1.227 2.867,-2.74c1.22,-28.062 -0.716,-57.312 -1.914,-87.686Z" style="fill:#fff;"/><path d="M61.527,52.251l-1,19.25l56.25,0.5l0.5,-18.75l-55.75,-1Z" style="fill:#444e87;"/><path d="M118.634,53.695c-0.071,-0.623 -0.43,-1.42 -1.341,-2.077c-0.514,-0.37 -1.889,-0.813 -2.664,-1.016c-5.084,-1.317 -11.949,-2.002 -20.383,-2.152c-8.476,-0.15 -18.552,0.278 -29.995,0.952c-1.653,0.117 -3.115,0.574 -3.7,0.915c-1.775,1.033 -2.228,2.585 -2.259,3.918c-0.001,0.064 -0.084,15.943 -0.084,15.943c-0.052,1.359 0.334,2.981 2.071,4.167c0.661,0.452 2.354,1.121 4.398,1.098c10.71,0.044 20.635,0.052 29.605,-0.211c7.267,-0.214 13.896,-0.607 19.874,-1.093c1.589,-0.133 2.933,-0.559 3.451,-0.919c1.19,-0.825 1.618,-1.861 1.64,-2.811c0.333,-2.702 0.462,-5.454 0.351,-8.257c-0.11,-2.776 -0.426,-5.593 -0.964,-8.457l0,-0Zm-2.703,0.43c-0.043,-0.277 -29.041,-2.26 -51.319,-0.339c-1.05,0.09 -1.989,0.231 -1.988,0.509c-0.093,5.979 0.272,11.218 0.048,16.097c-0.013,0.278 0.892,0.501 1.991,0.497c19.461,0.438 36.027,0.518 49.328,-0.157c1.082,-0.055 1.989,-0.232 1.988,-0.509c0.832,-5.155 0.8,-10.524 -0.048,-16.098Z" style="fill:#fff;"/><path d="M73.417,90.142c0,-1.819 -1.444,-3.296 -3.223,-3.296l-6.445,0c-1.779,0 -3.223,1.477 -3.223,3.296l-0,6.593c-0,1.819 1.444,3.297 3.223,3.297l6.445,-0c1.779,-0 3.223,-1.478 3.223,-3.297l0,-6.593Z" style="fill:#00dea7;"/><path d="M76.153,90.142c0.592,-1.176 0.069,-2.116 -0.009,-3.35c-0.02,-0.327 -0.238,-0.524 -0.317,-0.84c-0.099,-0.395 -0.358,-0.641 -0.576,-0.981c-1.017,-1.584 -3.063,-2.174 -5.057,-2.29c0,0 -6.445,0.146 -6.445,0.146c-1.964,0.057 -3.757,0.837 -5.006,2.195c-1.236,1.343 -2.055,3.133 -1.992,5.12c0,0 0.21,6.593 0.21,6.593c0.061,1.905 0.786,3.641 2.047,4.849c1.246,1.193 2.902,1.985 4.741,1.922c-0,-0 6.445,-0.243 6.445,-0.243c1.749,-0.065 3.342,-0.763 4.447,-1.979c1.089,-1.199 1.813,-2.786 1.75,-4.549c-0,0 -0.238,-6.593 -0.238,-6.593Zm-2.736,0c0,-1.819 -1.444,-3.296 -3.223,-3.296l-6.445,0c-1.779,0 -3.223,1.477 -3.223,3.296l-0,6.593c-0,1.819 1.444,3.297 3.223,3.297l6.445,-0c1.779,-0 3.223,-1.478 3.223,-3.297l0,-6.593Z" style="fill:#fff;"/><path d="M96.264,89.694c0,-1.819 -1.444,-3.296 -3.222,-3.296l-6.446,0c-1.779,0 -3.223,1.477 -3.223,3.296l0,6.593c0,1.819 1.444,3.296 3.223,3.296l6.446,0c1.778,0 3.222,-1.477 3.222,-3.296l0,-6.593Z" style="fill:#00dea7;"/><path d="M99.001,89.694c0.188,-1.724 -0.562,-3.257 -1.546,-4.514c-1.028,-1.313 -2.65,-1.956 -4.413,-2.153c-0,0 -6.446,-0.629 -6.446,-0.629c-1.997,-0.159 -3.779,0.751 -5.184,1.995c-1.438,1.274 -2.179,3.208 -2.313,5.301c-0,0 -0.195,6.593 -0.195,6.593c0.049,2.163 0.859,4.153 2.295,5.52c1.421,1.353 3.307,2.266 5.397,2.162c-0,0 6.446,-0.458 6.446,-0.458c1.92,-0.166 3.696,-0.867 4.842,-2.271c1.109,-1.36 1.942,-3.052 1.764,-4.953c0,0 -0.647,-6.593 -0.647,-6.593Zm-2.737,0c0,-1.819 -1.444,-3.296 -3.222,-3.296l-6.446,0c-1.779,0 -3.223,1.477 -3.223,3.296l0,6.593c0,1.819 1.444,3.296 3.223,3.296l6.446,0c1.778,0 3.222,-1.477 3.222,-3.296l0,-6.593Z" style="fill:#fff;"/><path d="M74.224,114.364c0,-1.819 -1.444,-3.296 -3.223,-3.296l-6.445,-0c-1.779,-0 -3.223,1.477 -3.223,3.296l-0,6.593c-0,1.819 1.444,3.296 3.223,3.296l6.445,-0c1.779,-0 3.223,-1.477 3.223,-3.296l0,-6.593Z" style="fill:#00dea7;"/><path d="M76.96,114.364c0.189,-1.725 -0.561,-3.258 -1.545,-4.514c-1.029,-1.314 -2.65,-1.957 -4.414,-2.153c0,-0 -6.445,-0.629 -6.445,-0.629c-1.997,-0.16 -3.779,0.75 -5.184,1.994c-1.438,1.274 -2.179,3.208 -2.313,5.302c-0,-0 -0.195,6.593 -0.195,6.593c0.049,2.163 0.858,4.152 2.295,5.52c1.42,1.352 3.307,2.265 5.397,2.162c-0,-0 6.445,-0.459 6.445,-0.459c1.921,-0.166 3.697,-0.867 4.842,-2.271c1.11,-1.36 1.943,-3.052 1.765,-4.952c0,-0 -0.648,-6.593 -0.648,-6.593Zm-2.736,-0c0,-1.819 -1.444,-3.296 -3.223,-3.296l-6.445,-0c-1.779,-0 -3.223,1.477 -3.223,3.296l-0,6.593c-0,1.819 1.444,3.296 3.223,3.296l6.445,-0c1.779,-0 3.223,-1.477 3.223,-3.296l0,-6.593Z" style="fill:#fff;"/><path d="M96.68,113.359c0,-1.819 -1.444,-3.296 -3.223,-3.296l-6.445,-0c-1.779,-0 -3.223,1.477 -3.223,3.296l-0,6.593c-0,1.819 1.444,3.296 3.223,3.296l6.445,-0c1.779,-0 3.223,-1.477 3.223,-3.296l0,-6.593Z" style="fill:#00dea7;"/><path d="M99.416,113.359c0.592,-1.176 0.069,-2.117 -0.009,-3.35c-0.02,-0.327 -0.238,-0.525 -0.317,-0.84c-0.099,-0.395 -0.358,-0.642 -0.576,-0.982c-1.017,-1.584 -3.063,-2.174 -5.057,-2.289c0,-0 -6.445,0.146 -6.445,0.146c-1.964,0.057 -3.757,0.837 -5.006,2.195c-1.236,1.343 -2.055,3.133 -1.992,5.12c0,-0 0.211,6.593 0.211,6.593c0.06,1.904 0.785,3.64 2.046,4.848c1.246,1.193 2.902,1.985 4.741,1.922c-0,0 6.445,-0.242 6.445,-0.242c1.749,-0.066 3.342,-0.764 4.447,-1.98c1.089,-1.199 1.813,-2.786 1.75,-4.548c-0,-0 -0.238,-6.593 -0.238,-6.593Zm-2.736,-0c0,-1.819 -1.444,-3.296 -3.223,-3.296l-6.445,-0c-1.779,-0 -3.223,1.477 -3.223,3.296l-0,6.593c-0,1.819 1.444,3.296 3.223,3.296l6.445,-0c1.779,-0 3.223,-1.477 3.223,-3.296l0,-6.593Z" style="fill:#fff;"/><path d="M119.968,89.269c0,-1.819 -1.444,-3.296 -3.223,-3.296l-6.445,-0c-1.779,-0 -3.223,1.477 -3.223,3.296l-0,29.986c-0,1.82 1.444,3.297 3.223,3.297l6.445,-0c1.779,-0 3.223,-1.477 3.223,-3.297l0,-29.986Z" style="fill:#ffcd55;"/><path d="M122.704,89.269c0.094,-1.703 -0.614,-3.233 -1.645,-4.412c-1.055,-1.208 -2.61,-1.876 -4.314,-1.974c0,0 -6.445,-0.353 -6.445,-0.353c-1.836,-0.092 -3.483,0.713 -4.747,1.884c-1.287,1.193 -1.999,2.942 -2.091,4.855c-0,0 -0.47,9.633 -0.688,17.992c-0.166,6.373 -0.167,11.994 -0.167,11.994c0.025,2.167 0.869,4.137 2.275,5.542c1.4,1.399 3.307,2.291 5.418,2.265c-0,0 6.445,-0.163 6.445,-0.163c2.052,-0.063 3.929,-0.872 5.231,-2.294c1.287,-1.406 2.149,-3.274 2.075,-5.35c0,0 -1.347,-29.986 -1.347,-29.986Zm-2.736,0c0,-1.819 -1.444,-3.296 -3.223,-3.296l-6.445,-0c-1.779,-0 -3.223,1.477 -3.223,3.296l-0,29.986c-0,1.82 1.444,3.297 3.223,3.297l6.445,-0c1.779,-0 3.223,-1.477 3.223,-3.297l0,-29.986Z" style="fill:#fff;"/></g></g></svg>