<?xml version="1.0" encoding="UTF-8" standalone="no"?><!DOCTYPE svg PUBLIC "-//W3C//DTD SVG 1.1//EN" "http://www.w3.org/Graphics/SVG/1.1/DTD/svg11.dtd"><svg width="100%" height="100%" viewBox="0 0 176 178" version="1.1" xmlns="http://www.w3.org/2000/svg" xmlns:xlink="http://www.w3.org/1999/xlink" xml:space="preserve" xmlns:serif="http://www.serif.com/" style="fill-rule:evenodd;clip-rule:evenodd;stroke-linejoin:round;stroke-miterlimit:2;"><rect id="ICONS-SVG-BLUE" serif:id="ICONS SVG BLUE" x="0" y="0" width="176" height="178" style="fill:none;"/><clipPath id="_clip1"><rect x="0" y="0" width="176" height="178"/></clipPath><g clip-path="url(#_clip1)"><path d="M87.594,0.286c65.205,-4.269 88.406,39.856 88.406,88.849c0,48.993 -29.665,91.97 -84.913,88.689c-45.833,-2.722 -92.397,-27.685 -91.059,-90.268c0.614,-28.7 24.221,-83.122 87.566,-87.27Z" style="fill:#444e87;"/><g id="blue_icon_camara"><path d="M99.654,54.684c0,-0 -2.012,-8 0.736,-11.33c1.881,-2.279 8.157,-2.518 12.72,-2.477c4.377,0.04 10.633,-0.486 12.029,1.876c1.7,2.877 1.361,12.153 1.361,12.153" style="fill:#c1365b;"/><path d="M121.986,44.845c0.054,0.118 0.113,0.252 0.17,0.322c0.402,0.947 0.615,2.403 0.792,3.823c0.369,2.948 0.447,5.803 0.447,5.803c-0.062,1.713 1.278,3.155 2.991,3.218c1.714,0.063 3.155,-1.278 3.218,-2.991c0,-0 0.457,-5.164 0.084,-9.237c-0.185,-2.032 -0.703,-3.804 -1.307,-4.946c-0.74,-1.389 -2.177,-2.461 -4.172,-3.142c-2.829,-0.965 -7.506,-0.85 -11.062,-0.984c-3.218,0.045 -7.206,0.218 -10.191,1.041c-2.495,0.688 -4.435,1.802 -5.488,3.191c-1.265,1.715 -1.989,4.062 -2.014,6.551c-0.038,3.892 1.188,7.948 1.188,7.948c0.418,1.663 2.108,2.673 3.77,2.255c1.663,-0.419 2.673,-2.108 2.255,-3.771c0,0 -0.4,-2.455 -0.254,-5.032c0.066,-1.166 0.22,-2.392 0.898,-3.129c0.123,-0.137 0.385,-0.054 0.621,-0.128c0.863,-0.271 1.917,-0.359 3.028,-0.456c2.022,-0.175 4.225,-0.185 6.112,-0.137c2.012,-0.027 4.426,-0.173 6.564,-0.115c0.706,0.019 1.804,-0.155 2.35,-0.084Zm-0,-0l0.017,0.002l0.095,0.188l0.058,0.132c0.043,0.061 0.087,0.077 0.124,0.008c0.108,-0.2 -0.019,-0.293 -0.277,-0.328c-0.034,-0.063 -0.07,-0.122 -0.106,-0.178l0.089,0.176Z" style="fill:#fff;"/><path d="M63.171,54.181c-0,0 -26.273,0.099 -28.281,19.337c-1.735,16.626 -8.46,61.154 8.944,62.846c17.403,1.692 51.968,-0.242 64.779,-0c12.811,0.242 35.29,-2.659 36.015,-14.503c0.725,-11.844 1.523,-52.933 0,-56.561c-2.692,-6.413 -6.284,-10.394 -20.062,-10.394c-13.778,0 -61.395,-0.725 -61.395,-0.725Z" style="fill:#2b3465;"/><path d="M63.236,49.879c-0.027,-0.001 -0.054,-0.001 -0.081,-0.001c-0,0 -14.336,0.143 -23.796,7.513c-4.496,3.502 -7.978,8.514 -8.721,15.684c-1.121,10.819 -4.225,33.19 -1.811,48.484c1.715,10.868 6.549,18.238 14.597,19.017c5.373,0.52 12.348,0.707 19.827,0.713c16.871,0.014 36.361,-0.884 45.282,-0.719c8.918,0.17 22.188,-1.191 30.618,-5.567c5.71,-2.964 9.343,-7.301 9.688,-12.884c0.453,-7.353 0.941,-25.902 0.889,-39.901c-0.036,-9.482 -0.547,-17.034 -1.186,-18.56c-1.708,-4.075 -3.813,-7.291 -7.562,-9.579c-3.424,-2.089 -8.421,-3.425 -16.414,-3.429l-61.33,-0.771Zm77.402,16.884c0.04,0.305 0.244,1.89 0.326,3.269c0.248,4.175 0.321,10.721 0.29,17.846c-0.056,12.786 -0.453,27.424 -0.836,33.725c-0.23,3.774 -4.038,5.762 -8.471,7.354c-7.21,2.588 -16.617,3.325 -23.255,3.201c-8.951,-0.173 -28.505,0.709 -45.431,0.682c-7.173,-0.012 -13.864,-0.185 -19.018,-0.688c-2.268,-0.222 -3.71,-1.829 -4.797,-4.029c-1.786,-3.612 -2.572,-8.651 -2.886,-14.219c-0.787,-13.954 1.645,-31.027 2.582,-39.942c0.608,-5.782 4.092,-9.298 8.063,-11.494c6.861,-3.795 15.184,-3.975 15.928,-3.983l0.028,-0l61.405,0.678c4.666,-0.003 7.998,0.447 10.453,1.417c3.127,1.235 4.452,3.441 5.619,6.183Z" style="fill:#fff;"/><path d="M123.858,69.357c-0,-0 -10.744,-0.909 -10.881,4.24c-0.099,3.711 -1.075,6.139 1.017,7.447c3.442,2.154 11.407,2.155 16.888,1.017c0.987,-0.205 0.882,-7.855 0.231,-10.531c-0.5,-2.056 -4.433,-2.27 -7.255,-2.173Z" style="fill:#ffcd55;"/><path d="M123.894,67.143c-0.989,-0.08 -6.661,-0.452 -10.031,1.233c-2.069,1.034 -3.366,2.746 -3.498,5.151c-0.127,2.56 -0.56,4.557 -0.335,6.051c0.24,1.588 0.974,2.834 2.498,3.809c1.816,1.143 4.666,1.894 7.875,2.113c3.636,0.247 7.744,-0.131 11.015,-0.858c0.738,-0.168 2.103,-0.93 2.489,-2.96c0.459,-2.412 0.175,-8.345 -0.459,-10.72c-0.391,-1.449 -1.47,-2.595 -3.185,-3.205c-1.758,-0.626 -4.301,-0.726 -6.369,-0.614Zm4.919,5.138c0.333,1.729 0.394,5.3 0.128,7.426c-2.057,0.292 -4.357,0.404 -6.552,0.338c-2.781,-0.083 -5.404,-0.389 -6.929,-1.344l0.129,-5.034c-0.004,-1.093 1.277,-1.287 2.4,-1.572c2.654,-0.675 5.682,-0.537 5.682,-0.537c0.087,0.007 0.175,0.009 0.263,0.006c1.194,-0.013 2.613,0.041 3.809,0.305c0.375,0.082 0.864,0.31 1.07,0.412Z" style="fill:#fff;"/><path d="M78.637,71.045c0,0 -21.444,-4.467 -27.029,16.53c-5.584,20.998 7.148,32.614 23.902,31.497c16.753,-1.117 30.055,-13.238 22.114,-33.954c-5.137,-13.403 -18.987,-14.073 -18.987,-14.073Z" style="fill:#00dea7;"/><path d="M79.042,67.956c-1.568,-0.314 -10.918,-1.915 -19.259,2.577c-4.991,2.687 -9.608,7.526 -12.085,16.002c-3.186,11.306 -1.446,20.313 3.057,26.563c5.259,7.3 14.466,11.035 25.043,10.305c10.192,-0.821 19.179,-5.261 24.04,-12.675c4.344,-6.625 5.652,-15.697 1.141,-26.896c-2.145,-5.296 -5.417,-8.854 -8.832,-11.214c-5.744,-3.971 -11.804,-4.576 -13.105,-4.662Zm-1.039,6.131c0.16,0.033 0.321,0.053 0.484,0.061c-0,0 5.064,0.413 9.734,3.918c2.396,1.798 4.646,4.461 6.049,8.338c3.047,8.369 2.292,15.044 -1.061,19.831c-3.724,5.316 -10.512,8.111 -17.988,8.506c-7.29,0.469 -13.677,-1.843 -17.363,-6.828c-3.329,-4.503 -4.413,-11.013 -2.34,-19.298c1.458,-6.074 4.44,-9.72 7.863,-11.806c6.709,-4.089 14.622,-2.722 14.622,-2.722Z" style="fill:#fff;"/><path d="M80.736,80.841c-0,0 -2.04,-0.493 -4.947,-0.415c-1.551,0.042 -3.271,0.307 -5.045,0.914c-2.154,0.736 -4.312,2.035 -6,4.072c-1.084,1.307 -1.948,2.949 -2.461,4.898c-0.377,1.436 -0.615,3.011 -0.556,4.8c0.065,2.014 0.386,4.182 1.109,6.687c0.086,0.716 0.736,1.228 1.452,1.143c0.715,-0.086 1.227,-0.736 1.142,-1.451c0.112,-2.761 0.635,-4.948 1.256,-6.873c0.281,-0.868 0.649,-1.612 0.99,-2.333c0.546,-1.154 1.244,-2.058 1.93,-2.887c0.64,-0.774 1.267,-1.477 1.979,-2.047c0.847,-0.678 1.669,-1.286 2.542,-1.742c3.311,-1.731 6.403,-2.162 6.403,-2.162c0.719,0.057 1.348,-0.481 1.405,-1.199c0.057,-0.719 -0.481,-1.348 -1.199,-1.405Z" style="fill:#fff;"/></g></g></svg>