<?xml version="1.0" encoding="UTF-8" standalone="no"?><!DOCTYPE svg PUBLIC "-//W3C//DTD SVG 1.1//EN" "http://www.w3.org/Graphics/SVG/1.1/DTD/svg11.dtd"><svg width="100%" height="100%" viewBox="0 0 176 178" version="1.1" xmlns="http://www.w3.org/2000/svg" xmlns:xlink="http://www.w3.org/1999/xlink" xml:space="preserve" xmlns:serif="http://www.serif.com/" style="fill-rule:evenodd;clip-rule:evenodd;stroke-linejoin:round;stroke-miterlimit:2;"><rect id="ICONS-SVG-BLUE" serif:id="ICONS SVG BLUE" x="0" y="0" width="176" height="178" style="fill:none;"/><clipPath id="_clip1"><rect x="0" y="0" width="176" height="178"/></clipPath><g clip-path="url(#_clip1)"><path d="M87.594,0.286c65.205,-4.269 88.406,39.856 88.406,88.849c0,48.993 -29.665,91.97 -84.913,88.689c-45.833,-2.722 -92.397,-27.685 -91.059,-90.268c0.614,-28.7 24.221,-83.122 87.566,-87.27Z" style="fill:#444e87;"/><g id="blue_icon_contacts"><path d="M86.698,43.182c0,-0 -10.624,0.8 -21.086,7.061c-7.568,4.528 -14.932,13.822 -18.698,18.616c-18.623,23.701 0.282,60.382 0.282,60.382c-0,-0 21.162,18.905 38.374,20.033c17.212,1.129 35.834,-2.821 44.017,-12.979c8.182,-10.158 22.008,-41.76 2.257,-66.026c-19.751,-24.265 -45.146,-27.087 -45.146,-27.087Z" style="fill:#00dea7;"/><circle cx="51.217" cy="92.631" r="18.129" style="fill:#2b3465;"/><circle cx="126.271" cy="93.195" r="18.129" style="fill:#2b3465;"/><path d="M95.445,120.212c0,-0 6.208,20.315 -8.182,15.519c-0,-0 -5.643,-20.316 8.182,-15.519Z" style="fill:#c1365b;"/><path id="icon_contacts" d="M55.21,52.585c-0.797,-0.575 -1.485,-1.22 -2.086,-1.955c-1.383,-1.693 -2.306,-3.891 -2.934,-6.939c-0.109,-0.531 -0.459,-5.525 4.372,-6.47c1.599,-0.313 3.948,-0.126 7.346,1.197c-0.003,-0.78 0.009,-1.663 0.057,-2.416c0.081,-1.254 0.294,-2.5 0.716,-3.516c0.437,-1.051 1.101,-1.878 1.986,-2.397c0.592,-0.346 1.363,-0.479 2.278,-0.271c0.749,0.17 1.679,0.611 2.657,1.228c1.449,0.913 3.066,2.236 4.309,3.203c0.58,-2.03 1.554,-4.832 3.257,-6.696c1.697,-1.856 4.033,-2.941 7.317,-1.983c1.266,0.372 2.307,1.774 2.695,3.826c0.258,1.361 0.302,3.02 0.284,4.42c1.184,-0.822 2.648,-1.864 4.144,-2.661c2.238,-1.194 4.563,-1.802 6.389,-1.181c1.358,0.462 2.05,1.495 2.172,2.95c0.112,1.352 -0.441,3.251 -0.969,4.916c1.498,-0.827 3.395,-1.872 5.239,-2.739c2.663,-1.252 5.269,-2.043 6.717,-1.742c1.929,0.402 2.692,1.764 2.642,3.601c-0.026,0.919 -0.317,1.996 -0.691,3.019c0.609,-0.286 1.231,-0.548 1.81,-0.739c1.301,-0.428 2.46,-0.45 3.157,-0.094c1.288,0.658 1.782,1.642 1.829,2.747c0.032,0.742 -0.171,1.567 -0.51,2.366c0.414,-0.078 0.82,-0.11 1.187,-0.074c0.852,0.084 1.556,0.462 1.989,1.248c0.783,1.421 0.272,3.198 -1.212,4.836c-1.174,1.295 -2.915,2.544 -4.513,3.45c1.138,0.818 2.279,1.657 3.43,2.507c0.732,-0.151 1.496,-0.244 2.285,-0.256c1.267,-0.019 2.595,0.118 3.975,0.485c1.177,0.314 2.384,0.736 3.618,1.384c1.505,0.789 3.013,1.799 4.589,3.15c0.482,0.308 0.624,0.949 0.317,1.431c-0.308,0.483 -0.949,0.624 -1.432,0.317c-2.402,-1.111 -4.553,-1.607 -6.535,-1.887c-0.44,-0.062 -0.867,-0.1 -1.283,-0.122c4.275,3.828 8.107,8.135 11.268,12.739c3.18,1.596 5.785,4.121 7.943,6.95c3.566,4.675 4.188,10.763 3.286,17.037c-0.389,2.151 -2.659,11.628 -3.388,14.443c-3.997,14.741 -14.118,26.606 -26.857,33.743c-12.969,7.267 -28.741,9.2 -43.666,4.834c-14.276,-4.755 -26.578,-14.308 -33.861,-26.525c-2.73,-4.58 -4.811,-9.486 -6.114,-14.577l-0.016,-0.014c-2.099,-1.999 -3.784,-4.34 -4.897,-6.981c-2.47,-5.861 -3.18,-12.625 -0.338,-18.864c2.54,-4.927 5.861,-9.122 10.381,-11.308c1.073,-2.054 2.23,-4.036 3.467,-5.933c-0.439,0.023 -0.883,0.059 -1.333,0.115c-1.673,0.206 -3.361,0.49 -5.111,1.151c-0.5,0.277 -1.132,0.096 -1.409,-0.405c-0.277,-0.5 -0.096,-1.132 0.405,-1.409c1.518,-1.16 3.055,-2.021 4.654,-2.701c1.161,-0.493 2.325,-0.824 3.498,-1.079c0.898,-0.196 1.79,-0.32 2.673,-0.383c2.661,-3.378 5.61,-6.4 8.817,-8.976Zm59.067,6.434c-5.585,-4.186 -12.121,-6.051 -18.304,-7.987c-16.449,-5.151 -30.826,-0.214 -40.982,11.975c0.2,0.077 0.397,0.156 0.59,0.236c4.697,1.944 7.567,4.531 7.567,4.531c0.477,0.315 0.609,0.958 0.293,1.436c-0.315,0.477 -0.958,0.609 -1.436,0.294c0,-0 -3.865,-1.707 -9.182,-2.547c-0.246,-0.038 -0.495,-0.075 -0.746,-0.109c-0.71,1.027 -1.392,2.089 -2.044,3.179c2.618,0.059 5.226,0.646 7.73,2.014l0,-0c5.762,0.722 10.051,4.306 13.318,8.589c3.566,4.675 4.187,10.763 3.285,17.037c-1.201,6.651 -5.613,11.663 -10.856,15.1c-4.53,2.969 -12.377,3.599 -18.061,2.888c1.403,10.259 17.684,23.174 30.598,27.218c22.542,7.059 56.73,-7.848 60.893,-29.443l-2.293,0.643c-4.943,2.178 -10.764,2.339 -16.484,0.989c-6.646,-2.393 -12.174,-6.861 -14.719,-12.898c-2.47,-5.861 -3.18,-12.625 -0.338,-18.864c2.949,-5.72 6.95,-10.453 12.658,-12.203c3.26,-0.999 6.67,-1.563 10.03,-1.153c-2.372,-2.851 -5.01,-5.526 -7.839,-7.966c-1.032,0.421 -1.983,0.882 -2.835,1.411c-3.213,1.992 -5.133,4.35 -5.133,4.35c-0.286,0.496 -0.92,0.666 -1.416,0.38c-0.496,-0.285 -0.666,-0.92 -0.38,-1.415c-0,-0 1.381,-3.319 4.543,-6.374c0.473,-0.457 0.988,-0.896 1.543,-1.311Zm-24.543,57.545c-3.014,-0.099 -5.174,1.653 -6.635,4.415c-1.401,2.648 -1.853,6.455 -1.584,10.617c0.215,2.187 1.522,4.158 3.369,5.417c1.741,1.186 3.988,1.653 6.154,1.194c1.714,-0.418 3.489,-1.495 4.727,-3.075c1.195,-1.524 1.988,-3.38 1.973,-5.178c-0.164,-5.575 -1.009,-9.17 -2.523,-11.112c-1.401,-1.798 -3.166,-2.638 -5.481,-2.278l-0,-0Zm0.209,3.182c1.241,0.028 1.893,0.83 2.282,2.21c0.495,1.756 0.433,4.284 0.012,7.742c-0.061,0.597 -0.52,1.107 -0.963,1.578c-0.422,0.45 -0.958,0.792 -1.492,0.884c-0.533,0.108 -1.063,-0.069 -1.501,-0.344c-0.42,-0.263 -0.867,-0.562 -0.956,-1.041c-0.671,-3.064 -0.836,-5.927 -0.142,-8.071c0.488,-1.509 1.249,-2.709 2.759,-2.958l0.001,0Zm-9,-9.076c0.042,0.055 0.173,0.229 0.247,0.334c0.184,0.26 0.383,0.518 0.606,0.735c0.213,0.207 0.459,0.366 0.728,0.49c1.754,0.797 3.442,1.113 5.157,1.119c2.333,0.008 4.717,-0.615 7.417,-1.488c0.528,-0.173 0.894,-0.496 1.195,-0.887c0.115,-0.15 0.282,-0.431 0.381,-0.605c0.099,0.015 0.215,0.042 0.293,0.04c0.336,-0.008 0.673,-0.032 0.979,-0.091c0.354,-0.068 0.674,-0.198 0.958,-0.368c0.628,-0.392 0.925,-1.149 0.733,-1.864c-0,0 -0.798,-3.277 -2.201,-6.976c-0.873,-2.301 -1.985,-4.759 -3.238,-6.722c-0.857,-1.343 -1.794,-2.462 -2.75,-3.213c-1.091,-0.857 -2.233,-1.29 -3.372,-1.236c-0.944,0.049 -1.854,0.379 -2.694,1.013c-1.154,0.871 -2.234,2.331 -3.125,4.144c-2.787,5.666 -4.126,14.762 -4.126,14.762c-0.057,0.324 0.032,0.656 0.244,0.909c0.211,0.252 0.523,0.397 0.852,0.397c0,0 0.546,-0.178 1.191,-0.372c0.174,-0.053 0.369,-0.131 0.525,-0.121Zm15.667,-0.309c-0.082,-0.008 -0.139,0.003 -0.127,0.067c0.006,0.032 0.057,-0.029 0.084,-0.042c0.014,-0.006 0.029,-0.015 0.043,-0.025Zm-50.503,-2.368c-3.908,-1.131 -10.093,-6.424 -10.498,-14.704c-0.467,-9.578 7.003,-14.278 7.609,-14.715c3.677,-2.651 8.515,-3.599 13.17,-2.141c7.843,2.456 13.827,10.236 11.267,19.539c-2.162,7.857 -9.978,15.367 -21.548,12.021Zm85.079,-31.475c5.092,1.939 7.746,5.574 8.969,9.688c0.814,2.74 1.267,5.408 0.183,9.679c-2.374,9.353 -11.46,13.77 -19.289,11.267c-11.609,-3.711 -13.095,-13.328 -10.639,-21.172c2.456,-7.843 12.073,-12.216 19.916,-9.76c0.292,0.091 0.579,0.19 0.86,0.298Zm-72.81,9.585c2.908,0 5.269,2.361 5.269,5.269c0,2.908 -2.361,5.269 -5.269,5.269c-2.908,0 -5.269,-2.361 -5.269,-5.269c0,-2.908 2.361,-5.269 5.269,-5.269Zm73.088,-1.16c2.908,0 5.269,2.361 5.269,5.269c-0,2.908 -2.361,5.269 -5.269,5.269c-2.908,0 -5.269,-2.361 -5.269,-5.269c-0,-2.908 2.361,-5.269 5.269,-5.269Z" style="fill:#fff;"/></g></g></svg>