<?xml version="1.0" encoding="UTF-8" standalone="no"?><!DOCTYPE svg PUBLIC "-//W3C//DTD SVG 1.1//EN" "http://www.w3.org/Graphics/SVG/1.1/DTD/svg11.dtd"><svg width="100%" height="100%" viewBox="0 0 176 178" version="1.1" xmlns="http://www.w3.org/2000/svg" xmlns:xlink="http://www.w3.org/1999/xlink" xml:space="preserve" xmlns:serif="http://www.serif.com/" style="fill-rule:evenodd;clip-rule:evenodd;stroke-linejoin:round;stroke-miterlimit:2;"><rect id="ICONS-SVG-BLUE" serif:id="ICONS SVG BLUE" x="0" y="0" width="176" height="178" style="fill:none;"/><clipPath id="_clip1"><rect x="0" y="0" width="176" height="178"/></clipPath><g clip-path="url(#_clip1)"><path d="M87.594,0.286c65.205,-4.269 88.406,39.856 88.406,88.849c0,48.993 -29.665,91.97 -84.913,88.689c-45.833,-2.722 -92.397,-27.685 -91.059,-90.268c0.614,-28.7 24.221,-83.122 87.566,-87.27Z" style="fill:#444e87;"/><g id="blue_ico_phone"><path d="M47.757,48.955l-17.877,17.056l7.269,29.118l26.756,36.312l38.223,14.525l31.343,-9.938l-1.147,-20.641l-16.818,-14.142l-10.32,-1.529l-9.938,11.085l-22.552,-8.409l-7.262,-13.761l11.467,-9.555l-5.733,-16.818l-10.703,-11.467l-12.708,-1.836Z" style="fill:#a25888;"/><path d="M91.1,107.253c-0.5,-0.11 -3.811,-1.343 -5.703,-2.523c-2.593,-1.617 -5.034,-3.696 -7.024,-5.261c-3.146,-3.224 -5.052,-6.328 -6.494,-8.424c2.566,-1.094 5.528,-3.355 7.946,-7.885c1.637,-3.025 1.674,-7.972 -0.13,-13.203c-1.654,-4.795 -4.682,-9.901 -7.746,-13.269c-1.172,-1.433 -7.139,-8.401 -14.299,-10.99c-4.939,-1.786 -10.324,-1.72 -15.568,1.742c-7.488,4.909 -12.991,12.386 -14.741,22.046c-1.286,7.096 -0.4,15.487 3.699,25.106c1.986,4.713 5.062,10.885 9.072,17.235c3.428,5.428 7.59,10.922 12.332,15.784c4.63,4.783 9.908,8.854 15.1,12.258c6.258,4.102 12.461,7.093 17.371,9.021l0,0c12.816,4.147 24.185,4.21 33.182,1.391c8.632,-2.704 15.335,-7.753 19.328,-14.51c3.151,-5.334 3.431,-10.974 1.794,-16.256c-2.722,-8.783 -10.691,-16.232 -10.691,-16.232c-0.057,-0.055 -0.115,-0.108 -0.174,-0.16c-4.992,-4.235 -9.703,-7.624 -14.114,-8.934c-5.304,-1.575 -10.444,-1.168 -15.477,2.908c-4.201,3.384 -6.533,6.425 -7.392,9.157c-0.105,0.333 -0.197,0.665 -0.271,0.999Zm-25.671,-22.626c0.743,1.319 0.624,1.376 2.004,1.246c2.025,-0.191 5.244,-2.259 6.951,-5.453c2.322,-4.344 -2.415,-14.69 -7.245,-19.808c0,0 -11.312,-14.684 -21.226,-7.897c-10.48,7.174 -16.269,20.483 -7.88,38.869c3.645,7.989 10.765,20.544 20.566,30.036c9.473,9.173 21.551,15.371 29.715,18.28c19.444,6.929 35.162,2.182 41.853,-8.439c6.33,-10.047 -7.085,-22.764 -7.085,-22.764c-7.228,-6.443 -13.497,-10.973 -19.814,-6.098c-3.459,2.669 -5.317,4.823 -5.411,7.014c-0.008,0.182 -0.097,1.309 0.635,1.626c0.864,0.373 0.767,0.33 1.684,0.688c1.474,0.482 2.267,2.035 1.771,3.466c-0.496,1.431 -2.03,1.932 -3.57,1.719c-2.505,-0.346 -8.951,-2.746 -9.693,-3.092c-2.267,-0.896 -5.02,-2.12 -6.955,-3.121c-2.465,-1.274 -4.672,-2.617 -6.598,-4.036c-4.103,-3.023 -7.066,-6.207 -9.236,-9.07c-5.093,-6.719 -5.933,-11.839 -5.933,-11.839l-0,0c-0.377,-1.464 0.541,-2.951 2.05,-3.317c1.509,-0.366 2.336,0.07 3.417,1.99Zm7.382,-46.162c-0,0 14.152,-2.748 29.965,-0.665c9.098,1.198 18.721,4.068 26.529,10.256c11.212,8.886 18.458,24.623 14.974,52.525c-0.241,1.673 0.962,3.22 2.685,3.454c1.723,0.235 3.317,-0.933 3.558,-2.606c3.21,-19.245 1.34,-33.469 -3.432,-43.915c-3.066,-6.711 -7.335,-11.938 -12.315,-15.915c-9.06,-7.234 -20.446,-10.414 -31.08,-11.429c-17.182,-1.64 -32.339,2.341 -32.339,2.341c-1.692,0.389 -2.74,2.04 -2.339,3.683c0.401,1.643 2.101,2.661 3.794,2.271l-0,0Zm10.474,12.419c-0,-0 7.799,-0.714 16.939,1.51c4.868,1.185 10.064,3.301 14.772,6.872c4.547,3.448 8.661,8.239 11.344,15.311c1.419,3.741 2.54,8.036 3.108,13.043c0.105,1.506 1.45,2.647 3.002,2.545c1.551,-0.101 2.726,-1.407 2.622,-2.913c-0.321,-10.921 -3.033,-19.15 -7.027,-25.33c-2.314,-3.579 -5.074,-6.49 -8.092,-8.785c-5.691,-4.327 -12.221,-6.573 -18.196,-7.63c-10.553,-1.866 -19.363,-0.026 -19.363,-0.026c-1.536,0.238 -2.583,1.643 -2.337,3.134c0.246,1.49 1.692,2.507 3.228,2.269l-0,-0Zm7.436,18.268c0,-0 4.599,0.71 9.399,3.095c1.709,0.85 3.457,1.896 5.037,3.346c2.209,2.027 4.268,4.651 5.151,8.659c0.225,1.674 1.808,2.856 3.533,2.638c1.725,-0.219 2.942,-1.756 2.717,-3.431c-0.461,-7.718 -3.919,-12.924 -8.278,-16.112c-2.697,-1.973 -5.783,-3.08 -8.559,-3.692c-5.038,-1.112 -9.069,-0.622 -9.069,-0.622c-1.74,0.018 -3.136,1.404 -3.117,3.093c0.019,1.689 1.447,3.044 3.186,3.026Z" style="fill:#fff;"/></g></g></svg>