<?xml version="1.0" encoding="UTF-8" standalone="no"?><!DOCTYPE svg PUBLIC "-//W3C//DTD SVG 1.1//EN" "http://www.w3.org/Graphics/SVG/1.1/DTD/svg11.dtd"><svg width="100%" height="100%" viewBox="0 0 176 178" version="1.1" xmlns="http://www.w3.org/2000/svg" xmlns:xlink="http://www.w3.org/1999/xlink" xml:space="preserve" xmlns:serif="http://www.serif.com/" style="fill-rule:evenodd;clip-rule:evenodd;stroke-linejoin:round;stroke-miterlimit:2;"><rect id="ICONS-SVG-BLUE" serif:id="ICONS SVG BLUE" x="0" y="0" width="176" height="178" style="fill:none;"/><clipPath id="_clip1"><rect x="0" y="0" width="176" height="178"/></clipPath><g clip-path="url(#_clip1)"><path d="M87.594,0.286c65.205,-4.269 88.406,39.856 88.406,88.849c0,48.993 -29.665,91.97 -84.913,88.689c-45.833,-2.722 -92.397,-27.685 -91.059,-90.268c0.614,-28.7 24.221,-83.122 87.566,-87.27Z" style="fill:#444e87;"/><g id="blue_icon_mail"><path d="M32.573,57.496c-0,0 2.189,20.576 2.846,28.019c0.656,7.442 -3.941,36.118 0.875,38.307c4.816,2.189 62.385,3.721 79.897,3.064c17.511,-0.657 27.581,-5.91 28.018,-13.134c0.206,-3.398 1.098,-16.75 0.129,-30.633c-1.09,-15.627 -4.069,-31.752 -4.069,-31.752c0,0 -110.98,-4.378 -106.821,4.816" style="fill:#ffcd55;"/><path d="M140.269,51.805c-2.877,-0.103 -75.081,-1.094 -75.081,-1.094c0,-0 -35.68,0.218 -33.928,3.064c1.751,2.846 19.919,20.357 26.705,26.486c6.785,6.13 17.292,19.701 26.048,18.169c8.756,-1.533 68.514,-46.187 56.256,-46.625Z" style="fill:#ffcd55;"/><path d="M30.13,58.756l2.39,27.015c0.406,5.316 -2.012,21.435 -1.663,31.002c0.12,3.274 0.632,5.902 1.422,7.47c0.676,1.343 1.62,2.175 2.622,2.644c2.333,1.09 16.658,2.368 33.135,3.118c18.128,0.825 38.925,1.214 48.307,0.931c11.064,-0.378 19.379,-2.591 24.543,-5.799c4.796,-2.98 7.2,-6.895 7.463,-11.134c0.122,-2.115 0.502,-8.029 0.529,-15.536c0.017,-4.759 -0.11,-10.154 -0.517,-15.629c-0.426,-5.567 -1.081,-11.195 -1.766,-16.153c-0.786,-5.693 -1.6,-10.501 -2.103,-13.321c0.07,-0.8 -0.077,-1.485 -0.375,-2.056c-0.077,-0.411 -0.119,-0.629 -0.119,-0.629c-0.322,-1.743 -1.808,-3.03 -3.579,-3.1c-0,-0 -34.559,-1.002 -64.445,-0.279l-10.734,-0.327c-0.025,-0 -0.05,-0 -0.075,-0c0,-0 -23.412,-0.061 -31.819,1.42c-2.13,0.376 -3.6,1.013 -4.301,1.521c-1.147,0.83 -1.624,1.854 -1.822,2.761c-0.225,1.038 -0.1,2.125 0.571,3.233c0.319,0.523 1.145,1.523 2.336,2.848Zm71.997,33.408c-1.874,1.311 -3.67,2.531 -5.348,3.631c-5.606,3.674 -10.105,5.96 -12.118,6.338c-3.783,0.711 -7.903,-0.575 -11.964,-3.159c-1.189,-0.756 -2.378,-1.63 -3.557,-2.578c-1.724,1.604 -4.465,4.107 -7.698,6.888c-2.074,1.784 -4.321,3.7 -6.69,5.469c-2.369,1.77 -4.844,3.381 -7.143,4.863c-4.274,2.755 -7.97,4.951 -9.828,6.035c0.108,0.463 0.261,0.947 0.362,1.245c0.887,0.204 2.556,0.333 4.792,0.527c5.92,0.515 15.223,0.9 25.372,1.182c17.921,0.499 38.469,0.646 47.732,0.231c7.607,-0.312 13.697,-1.511 18.046,-3.435l0.144,-0.064c-2.021,-0.977 -4.065,-2.202 -6.064,-3.587c-3.162,-2.191 -6.212,-4.755 -8.762,-7.297c-3.447,-3.435 -5.953,-6.778 -7.295,-8.314c-1.684,-2.078 -3.484,-3.728 -5.188,-4.992c-1.916,-1.42 -3.64,-2.397 -4.793,-2.983Zm8.808,17.752c-0,-0 -0.855,0.055 -2.091,0.306c-0.431,0.087 -0.88,0.21 -1.357,0.375c-0.443,0.154 -0.89,0.346 -1.311,0.591c-0.288,0.167 -0.557,0.365 -0.807,0.58c-0.341,0.293 -0.661,0.584 -0.924,0.921c-0.818,1.053 -1.406,2.079 -1.347,3.186c-0.111,0.662 0.338,1.29 1,1.401c0.663,0.11 1.291,-0.338 1.401,-1.001c0.136,-0.328 0.517,-0.435 0.84,-0.677c0.282,-0.213 0.627,-0.332 0.963,-0.524c0.342,-0.197 0.709,-0.367 1.053,-0.576c0.459,-0.278 0.874,-0.595 1.281,-0.868c1.168,-0.784 2.015,-1.388 2.015,-1.388c0.642,-0.197 1.003,-0.879 0.805,-1.521c-0.197,-0.642 -0.879,-1.003 -1.521,-0.805Zm27.227,-47.196c-0.738,0.767 -1.534,1.561 -2.381,2.376c-7.26,6.987 -18.335,15.937 -28.309,23.24c0.895,0.377 1.863,0.827 2.876,1.36c2.348,1.237 4.852,2.994 7.299,5.273c1.091,1.075 3.038,3.006 5.39,5.381c1.083,1.093 2.259,2.277 3.469,3.521c2.737,2.815 5.712,5.862 8.809,8.285c1.458,1.142 2.891,2.196 4.307,3.01c0.259,-0.519 0.413,-1.072 0.448,-1.664c0.13,-2.055 0.52,-7.801 0.601,-15.095c0.051,-4.569 -0.013,-9.749 -0.355,-15.008c-0.341,-5.408 -0.915,-10.877 -1.507,-15.699c-0.216,-1.757 -0.434,-3.429 -0.647,-4.98Zm-102.178,2.19l2.333,20.349c0.412,4.111 -0.652,14.627 -0.944,23.712c-0.041,1.291 -0.066,2.55 -0.067,3.752c1.587,-1.447 3.576,-3.227 5.798,-5.138c2.074,-1.784 4.321,-3.7 6.691,-5.47c2.369,-1.769 4.844,-3.379 7.144,-4.862c3.009,-1.94 5.732,-3.603 7.729,-4.795c-3.502,-3.303 -6.76,-6.784 -9.442,-9.164c-3.655,-3.288 -10.599,-9.814 -16.517,-15.66c-0.939,-0.927 -1.852,-1.84 -2.725,-2.724Zm85.023,-10.536l-55.796,0.075c0,-0 -17.022,0.262 -26.69,1.359c1.682,1.704 3.771,3.759 5.989,5.94c5.838,5.741 12.61,12.23 16.194,15.481c3.783,3.477 8.729,9.35 13.884,13.503c2.995,2.413 5.912,4.46 8.777,3.994c0.889,-0.144 2.406,-0.917 4.422,-2.015c5.086,-2.77 12.544,-7.632 20.247,-13.092c10.972,-7.779 22.442,-16.75 28.183,-22.754c0.322,-0.338 0.638,-0.696 0.936,-1.053c-0.044,-0.281 -0.086,-0.548 -0.126,-0.8c-3.279,-0.148 -8.957,-0.39 -16.02,-0.638Zm-47.656,19.082l0.001,-0.001c-0,0 0.025,0.016 0.03,0.044c0.005,0.029 0.097,0.05 0.094,0.135c-0.002,0.06 0.166,0.104 0.123,0.206c-0.013,0.03 0.072,0.056 0.05,0.09c-0.024,0.036 0.164,0.135 0.123,0.086c-0.038,-0.046 0.13,0.018 0.197,-0.025c0.156,-0.097 0.38,-0.098 0.634,-0.219c0.154,-0.075 0.332,-0.14 0.512,-0.248c0.167,-0.099 0.325,-0.231 0.504,-0.372c0.49,-0.385 0.918,-0.872 1.618,-1.396c0.631,-0.23 0.957,-0.929 0.728,-1.56c-0.23,-0.631 -0.929,-0.957 -1.56,-0.728c-0.669,0.02 -1.177,0.056 -1.709,0.135c-0.435,0.064 -0.797,0.161 -1.135,0.292c-0.352,0.136 -0.647,0.317 -0.888,0.503c-0.353,0.27 -0.619,0.523 -0.812,0.789c-0.389,0.535 -0.666,0.894 -0.753,1.276c-0.16,0.698 -0.302,1.113 -0.167,1.447c0.148,0.369 0.169,0.622 0.27,0.719c0.65,0.626 1.114,0.697 1.114,0.697c-0.641,0.017 0.116,0.169 0.675,-0.204c0.551,-0.368 0.706,-1.11 0.351,-1.666Zm-6.689,-3.455c0,0 1.423,-0.966 3.503,-2.266c0.721,-0.45 1.52,-0.921 2.352,-1.438c0.625,-0.387 1.271,-0.789 1.918,-1.201c0.629,-0.401 1.246,-0.825 1.881,-1.215c1.406,-0.866 2.78,-1.674 4.187,-2.058c0.664,-0.102 1.12,-0.724 1.018,-1.388c-0.102,-0.664 -0.724,-1.12 -1.388,-1.018c-1.736,0.067 -3.589,0.514 -5.419,1.239c-1.116,0.442 -2.213,0.982 -3.214,1.617c-1.048,0.665 -1.982,1.429 -2.809,2.159c-2.289,2.021 -3.694,3.793 -3.694,3.793c-0.49,0.46 -0.515,1.231 -0.055,1.721c0.459,0.49 1.23,0.515 1.72,0.055Z" style="fill:#fff;"/></g></g></svg>