<?xml version="1.0" encoding="UTF-8" standalone="no"?><!DOCTYPE svg PUBLIC "-//W3C//DTD SVG 1.1//EN" "http://www.w3.org/Graphics/SVG/1.1/DTD/svg11.dtd"><svg width="100%" height="100%" viewBox="0 0 176 178" version="1.1" xmlns="http://www.w3.org/2000/svg" xmlns:xlink="http://www.w3.org/1999/xlink" xml:space="preserve" xmlns:serif="http://www.serif.com/" style="fill-rule:evenodd;clip-rule:evenodd;stroke-linejoin:round;stroke-miterlimit:2;"><rect id="ICONS-SVG-BLUE" serif:id="ICONS SVG BLUE" x="0" y="0" width="176" height="178" style="fill:none;"/><clipPath id="_clip1"><rect x="0" y="0" width="176" height="178"/></clipPath><g clip-path="url(#_clip1)"><path d="M87.594,0.286c65.205,-4.269 88.406,39.856 88.406,88.849c0,48.993 -29.665,91.97 -84.913,88.689c-45.833,-2.722 -92.397,-27.685 -91.059,-90.268c0.614,-28.7 24.221,-83.122 87.566,-87.27Z" style="fill:#444e87;"/><g id="blue_icon_tinder"><path d="M64.312,48.178c0,-0 -3.065,23.758 6.131,24.371c9.197,0.613 33.261,-19.129 21.919,-46.903c-0,0 33.721,14.838 42.151,40.128c8.43,25.291 1.839,83.382 -48.742,80.01c-50.581,-3.372 -47.822,-42.61 -47.056,-50.274c0.767,-7.664 5.543,-22.915 11.189,-30.196c5.825,-7.51 14.408,-17.136 14.408,-17.136Z" style="fill:#c1365b;"/><path d="M66.817,48.501c0.142,-1.098 -0.448,-2.161 -1.456,-2.621c-1.007,-0.46 -2.197,-0.21 -2.934,0.617c0,-0 -4.317,4.725 -8.948,10.133c-1.974,2.304 -4.001,4.732 -5.782,6.973c-2.936,3.702 -5.696,9.381 -7.841,15.181c-2.251,6.083 -3.814,12.294 -4.271,16.413c-0.589,5.346 -2.069,24.964 11.759,39.217c7.411,7.638 19.253,13.81 38.17,15.23c20.106,1.439 33.837,-6.195 42.733,-17.689c7.124,-9.205 11.098,-20.996 12.633,-32.683c1.706,-12.98 0.389,-25.811 -2.631,-34.743c-2.778,-8.147 -7.949,-15.299 -13.906,-21.26c-13.395,-13.408 -30.586,-20.793 -30.586,-20.793c-1.292,-0.569 -2.8,-0.296 -3.811,0.688c-1.012,0.985 -1.325,2.485 -0.791,3.792c4.231,10.065 3.34,19.01 0.151,26.089c-2.916,6.475 -7.678,11.412 -12.111,14.217c-2.506,1.585 -4.831,2.547 -6.563,2.452c-0.944,-0.052 -1.572,-0.685 -2.07,-1.522c-0.684,-1.15 -1.136,-2.63 -1.452,-4.236c-1.324,-6.725 -0.293,-15.455 -0.293,-15.455Zm-5.573,7.177c-0.088,3.935 0.119,8.623 1.226,12.245c1.317,4.309 3.93,7.159 7.784,7.46c2.593,0.203 6.224,-0.818 10.033,-3.112c5.339,-3.214 11.134,-8.95 14.757,-16.57c3.087,-6.489 4.6,-14.343 2.925,-23.183c5.706,3.31 13.944,8.765 20.994,16.044c5.057,5.222 9.514,11.397 11.814,18.458c4.212,12.771 4.26,34.332 -3.735,51.208c-6.747,14.241 -19.475,25.037 -41.014,23.697c-16.539,-0.964 -27.054,-5.937 -33.647,-12.488c-12.121,-12.043 -10.95,-29.005 -10.536,-33.614c0.335,-3.764 1.671,-9.449 3.603,-15.04c1.806,-5.229 4.109,-10.389 6.663,-13.757c1.689,-2.231 3.616,-4.65 5.492,-6.948c1.267,-1.554 2.511,-3.052 3.641,-4.401l0,0.001Zm20.935,78.514c0,0 1.164,1.218 4.516,1.85c0.845,0.16 1.842,0.277 2.997,0.22c0.881,-0.044 1.846,-0.205 2.896,-0.469c1.255,-0.316 2.579,-0.8 4.083,-1.41c0.652,-0.163 1.049,-0.825 0.886,-1.476c-0.163,-0.652 -0.825,-1.049 -1.476,-0.886c-1.021,0.099 -1.94,0.121 -2.821,0.167c-1.009,0.052 -1.912,0.043 -2.745,0.074c-0.642,0.024 -1.232,0.061 -1.776,0.09c-0.649,0.035 -1.223,0.088 -1.744,0.102c-2.382,0.066 -3.401,-0.243 -3.401,-0.243c-0.546,-0.39 -1.307,-0.263 -1.698,0.283c-0.39,0.547 -0.263,1.308 0.283,1.698Zm-32.335,-46.709c-0,-0 -2.825,7.736 -1.909,17.261c0.354,3.681 1.265,7.633 3.136,11.432c1.649,3.346 4.047,6.575 7.344,9.413c3.816,3.285 8.865,6.037 15.467,7.9c0.848,0.283 1.766,-0.176 2.049,-1.024c0.283,-0.849 -0.176,-1.767 -1.025,-2.049c-4.695,-1.823 -8.382,-4.112 -11.348,-6.611c-2.096,-1.767 -3.78,-3.666 -5.175,-5.619c-1.016,-1.422 -1.851,-2.883 -2.581,-4.341c-2.09,-4.175 -3.092,-8.448 -3.469,-12.307c-0.718,-7.348 0.611,-13.116 0.611,-13.116c0.26,-0.855 -0.224,-1.761 -1.08,-2.02c-0.856,-0.259 -1.761,0.225 -2.02,1.081Z" style="fill:#fff;"/></g></g></svg>