<?xml version="1.0" encoding="UTF-8" standalone="no"?><!DOCTYPE svg PUBLIC "-//W3C//DTD SVG 1.1//EN" "http://www.w3.org/Graphics/SVG/1.1/DTD/svg11.dtd"><svg width="100%" height="100%" viewBox="0 0 176 178" version="1.1" xmlns="http://www.w3.org/2000/svg" xmlns:xlink="http://www.w3.org/1999/xlink" xml:space="preserve" xmlns:serif="http://www.serif.com/" style="fill-rule:evenodd;clip-rule:evenodd;stroke-linejoin:round;stroke-miterlimit:2;"><rect id="ICONS-SVG-BLUE" serif:id="ICONS SVG BLUE" x="0" y="0" width="176" height="178" style="fill:none;"/><clipPath id="_clip1"><rect x="0" y="0" width="176" height="178"/></clipPath><g clip-path="url(#_clip1)"><path d="M87.594,0.286c65.205,-4.269 88.406,39.856 88.406,88.849c0,48.993 -29.665,91.97 -84.913,88.689c-45.833,-2.722 -92.397,-27.685 -91.059,-90.268c0.614,-28.7 24.221,-83.122 87.566,-87.27Z" style="fill:#444e87;"/><g id="blue_icon_SMS"><path d="M36.451,98.07c-6.811,-5.643 -10.329,-12.592 -10.828,-20.066c-1.454,-21.768 31.364,-33.901 62.962,-33.901c31.598,-0 59.882,13.785 59.291,32.707c-0.816,26.094 -29.359,37.519 -60.12,38.941c-9.988,0.462 -26.875,-2.565 -26.875,-2.565c-9.969,20.142 -36.177,23.559 -33.645,21.247c15.134,-13.819 9.214,-36.364 9.214,-36.364l0.001,0.001Z" style="fill:#2b3465;"/><path d="M34.352,99.342c0.408,2.235 1.47,9.625 -0.473,17.62c-1.262,5.191 -3.851,10.642 -8.884,15.017c-1.491,1.296 -1.377,2.725 -1.132,3.685c0.221,0.862 1.171,2.484 3.778,2.732c1.957,0.186 6.877,-0.45 12.698,-2.634c7.622,-2.858 16.766,-8.42 22.735,-17.787c3.089,0.552 8.213,1.4 13.461,1.979c4.01,0.443 8.09,0.706 11.444,0.611c18.265,-0.605 35.832,-4.66 47.937,-12.928c10.443,-7.133 16.984,-17.298 17.406,-30.657c0.244,-10.923 -6.966,-20.778 -19.355,-27.527c-11.734,-6.391 -28.113,-10.127 -45.382,-9.867c-17.328,0.349 -34.936,4.198 -47.425,11.096c-12.026,6.643 -19.418,16.036 -18.394,27.512c0.389,4.295 1.649,8.416 3.884,12.228c1.883,3.213 4.427,6.223 7.702,8.92Zm0.572,30.764c2.358,-3.882 3.761,-7.981 4.51,-11.944c2.071,-10.959 -0.751,-20.679 -0.751,-20.679l-0,0c-0.119,-0.456 -0.379,-0.876 -0.759,-1.191c-2.945,-2.559 -5.179,-5.38 -6.752,-8.379c-1.672,-3.189 -2.541,-6.59 -2.692,-10.1c-0.405,-9.13 6.242,-15.955 15.996,-20.814c11.772,-5.865 28.135,-8.701 44.109,-8.38c15.433,0.232 29.966,3.92 40.312,9.882c8.221,4.737 13.828,10.797 13.533,18.138c-0.299,9.647 -5.238,16.806 -12.709,22.057c-10.611,7.457 -26.047,11.283 -42.187,12.24c-2.969,0.191 -6.59,0.063 -10.157,-0.195c-8.006,-0.579 -15.736,-1.793 -15.736,-1.793c-1.887,-0.338 -3.769,0.611 -4.619,2.328c-4.969,10.648 -14.97,16.329 -22.098,18.83Zm0.058,-30.257c0.143,0.119 0.301,0.22 0.469,0.3l-0.001,0.001c-0.265,0.573 0.988,0.231 1,0.228l-0,-0c-0.355,-0 -0.695,-0.081 -0.999,-0.229c0.026,-0.054 0.086,-0.074 0.166,-0.071l0.833,0.3l0,-0l0,-0c-0.021,-0.011 -0.548,-0.296 -0.833,-0.3l-0.635,-0.229Z" style="fill:#fff;"/><g><path d="M62.965,66.921c1.334,0.738 2.355,1.716 3.064,2.936c0.709,1.22 1.035,2.596 0.979,4.127c-0.057,2.638 -0.88,5.333 -2.468,8.085c-1.646,2.865 -3.589,4.553 -5.83,5.063c-0.964,0.199 -1.872,-0.071 -2.723,-0.808c-0.113,-0.085 -0.212,-0.199 -0.298,-0.341c-0.51,-0.312 -0.836,-0.666 -0.978,-1.063c-0.539,0.113 -1.107,0.085 -1.702,-0.085c-1.617,-0.398 -2.752,-1.249 -3.404,-2.553c-0.482,-0.908 -0.638,-2 -0.468,-3.277c0.142,-1.078 0.489,-2.035 1.042,-2.872c0.553,-0.837 1.312,-1.439 2.277,-1.808c1.475,-0.568 3.035,-0.454 4.68,0.34c0.454,-1.106 0.738,-1.815 0.851,-2.127c0.114,-0.256 0.333,-0.405 0.66,-0.447c0.326,-0.043 0.631,-0.028 0.914,0.042c0.284,0.071 0.539,0.149 0.766,0.234c0.426,0.199 0.809,0.461 1.149,0.788c0.341,0.326 0.44,0.673 0.298,1.042c-1.39,3.461 -2.156,5.39 -2.298,5.787c-0.454,1.248 -0.751,2.34 -0.893,3.276c0.908,-0.822 1.787,-2.042 2.638,-3.659c1.447,-2.808 2.085,-5.376 1.915,-7.702c-0.085,-1.134 -0.383,-2.028 -0.894,-2.68c-0.142,-0.17 -0.269,-0.312 -0.383,-0.426c-0.142,-0.113 -0.241,-0.17 -0.298,-0.17c-0.028,-0.028 -0.071,-0.057 -0.127,-0.085c-0.057,-0.028 -0.1,-0.043 -0.128,-0.043c-0,0 -0.057,-0.028 -0.17,-0.085c-0.256,-0.056 -0.412,-0.099 -0.468,-0.127c-1.731,-0.369 -3.73,-0.085 -6,0.851c-2.071,0.879 -3.829,2.219 -5.276,4.021c-1.447,1.801 -2.468,3.836 -3.064,6.106c-0.567,2.269 -0.652,4.552 -0.255,6.85c0.397,2.354 1.277,4.085 2.638,5.191c0.227,0.199 0.482,0.355 0.766,0.468c0.341,0.114 0.723,0.199 1.149,0.255c0.964,0.114 1.971,0.029 3.021,-0.255c1.929,-0.539 3.986,-1.773 6.17,-3.702c0.51,-0.425 1.305,-0.354 2.383,0.213c0.964,0.511 1.389,1.021 1.276,1.532l-0.255,0.383c-2.865,2.524 -5.716,3.985 -8.553,4.382c-1.673,0.227 -3.347,0.071 -5.021,-0.468c-1.673,-0.539 -3.106,-1.404 -4.297,-2.595c-1.248,-1.248 -2.149,-2.78 -2.702,-4.596c-0.553,-1.815 -0.787,-3.638 -0.702,-5.467c0.085,-1.83 0.44,-3.596 1.064,-5.298c0.907,-2.581 2.375,-4.794 4.403,-6.637c2.029,-1.844 4.362,-3.036 7,-3.575c3.234,-0.68 6.085,-0.354 8.552,0.979Zm-7.361,11.616c0.199,-0.539 0.426,-1.149 0.681,-1.829c-0.057,-0.029 -0.113,-0.071 -0.17,-0.128l-0.043,-0c-0.454,0.028 -0.879,0.17 -1.276,0.425c-0.908,0.596 -1.489,1.575 -1.745,2.936c-0.113,0.624 -0.127,1.263 -0.042,1.915c0.17,-0.142 0.397,-0.383 0.681,-0.723c0.482,-0.539 0.95,-1.092 1.404,-1.66c0.085,-0.113 0.184,-0.212 0.298,-0.298c0.056,-0.198 0.127,-0.411 0.212,-0.638Z" style="fill:#fff;fill-rule:nonzero;"/><path d="M93.474,74.878c0.255,0.34 0.319,0.652 0.191,0.936c-0.128,0.284 -0.404,0.44 -0.83,0.468c-1.815,0.085 -3.702,0.213 -5.659,0.383c-0.227,1.106 -0.425,2.17 -0.595,3.191c0.907,-0.085 1.787,-0.156 2.638,-0.213c0.453,-0.056 0.936,0.029 1.446,0.256c0.511,0.227 0.908,0.525 1.192,0.893c0.255,0.341 0.326,0.653 0.212,0.936c-0.113,0.284 -0.383,0.44 -0.808,0.468c-1.702,0.114 -3.432,0.284 -5.191,0.511c-0.851,5.219 -1.39,9.942 -1.617,14.169c-0.057,0.681 -0.61,0.908 -1.659,0.681c-1.05,-0.227 -1.745,-0.653 -2.085,-1.277c-0.085,-0.17 -0.128,-0.34 -0.128,-0.51c0.199,-3.801 0.652,-7.957 1.362,-12.467c-0.738,0.142 -1.475,0.283 -2.213,0.425c-0.312,2.667 -0.582,5.319 -0.808,7.957c-0.057,0.397 -0.305,0.638 -0.745,0.723c-0.44,0.085 -0.816,0.057 -1.128,-0.085c-0.453,-0.142 -0.907,-0.368 -1.361,-0.681c-0.454,-0.312 -0.667,-0.666 -0.638,-1.063c0.17,-1.901 0.368,-3.886 0.595,-5.957c-0.681,0.17 -1.347,0.34 -2,0.51c-0.453,0.114 -0.929,0.085 -1.425,-0.085c-0.496,-0.17 -0.943,-0.411 -1.34,-0.723c-0.114,-0.114 -0.22,-0.248 -0.319,-0.404c-0.1,-0.156 -0.171,-0.319 -0.213,-0.49c-0.043,-0.17 -0.029,-0.326 0.042,-0.468c0.071,-0.141 0.22,-0.241 0.447,-0.298c1.702,-0.453 3.432,-0.851 5.191,-1.191c0.17,-1.39 0.326,-2.638 0.468,-3.744c-1.617,0.17 -3.12,0.354 -4.51,0.553c-0.454,0.057 -0.943,-0.036 -1.468,-0.277c-0.525,-0.241 -0.929,-0.546 -1.213,-0.915c-0.255,-0.34 -0.319,-0.645 -0.191,-0.914c0.127,-0.27 0.404,-0.433 0.83,-0.49c2.241,-0.283 4.552,-0.553 6.935,-0.808c0.255,-1.674 0.511,-3.333 0.766,-4.978c0.114,-0.71 0.723,-0.908 1.83,-0.596c0.567,0.142 1.035,0.397 1.404,0.766c0.454,0.369 0.666,0.681 0.638,0.936c-0.17,0.993 -0.354,2.142 -0.553,3.446c0.879,-0.085 1.73,-0.156 2.553,-0.212c0.312,-1.617 0.78,-3.986 1.404,-7.106c0.057,-0.255 0.255,-0.397 0.596,-0.426c0.34,-0.028 0.666,-0.007 0.978,0.064c0.312,0.071 0.568,0.149 0.766,0.234c1.107,0.511 1.589,1.121 1.447,1.83c-0.426,2.127 -0.766,3.815 -1.021,5.063c1.163,-0.085 2.198,-0.156 3.106,-0.213c0.482,-0.028 0.979,0.071 1.489,0.298c0.511,0.227 0.908,0.525 1.192,0.894Zm-11.063,5.446c0.198,-1.049 0.397,-2.156 0.595,-3.319c-0.766,0.085 -1.574,0.171 -2.425,0.256c-0.17,1.191 -0.326,2.34 -0.468,3.446c0.766,-0.142 1.532,-0.269 2.298,-0.383Z" style="fill:#fff;fill-rule:nonzero;"/><path d="M98.197,90.664c-0.426,-0.369 -0.624,-0.681 -0.596,-0.936c0.879,-8.624 1.574,-17.247 2.085,-25.87c0.028,-0.71 0.581,-0.937 1.659,-0.681c1.021,0.227 1.716,0.652 2.085,1.276c0.085,0.17 0.128,0.341 0.128,0.511c-0.511,8.623 -1.206,17.232 -2.085,25.827c-0.057,0.398 -0.305,0.639 -0.745,0.724c-0.439,0.085 -0.815,0.057 -1.127,-0.085c-0.539,-0.17 -1.007,-0.426 -1.404,-0.766Zm1.276,2.68c0.454,-0.453 1.22,-0.397 2.298,0.171c0.993,0.51 1.432,1.049 1.319,1.617l-0.213,0.34c-1.248,1.191 -2.581,2.241 -4,3.149c-0.709,0.425 -1.588,0.297 -2.638,-0.383c-0.17,-0.114 -0.354,-0.27 -0.553,-0.468c-0.198,-0.199 -0.354,-0.426 -0.468,-0.681c-0.113,-0.255 -0.028,-0.468 0.255,-0.638c1.419,-0.908 2.752,-1.944 4,-3.107Z" style="fill:#fff;fill-rule:nonzero;"/><path d="M113.217,93.174c0.453,0.284 0.766,0.596 0.936,0.936c0.17,0.426 0.113,0.71 -0.17,0.851c-1.22,0.624 -2.383,1.121 -3.49,1.49c-0.425,0.113 -0.893,0.085 -1.404,-0.086c-0.51,-0.17 -0.95,-0.411 -1.319,-0.723c-0.142,-0.113 -0.262,-0.248 -0.361,-0.404c-0.1,-0.156 -0.171,-0.312 -0.213,-0.468c-0.043,-0.156 -0.029,-0.305 0.042,-0.447c0.071,-0.142 0.22,-0.255 0.447,-0.34c1.078,-0.341 2.043,-0.738 2.894,-1.192c0.737,-0.368 1.616,-0.241 2.638,0.383Z" style="fill:#fff;fill-rule:nonzero;"/><path d="M124.492,93.174c0.454,0.284 0.766,0.596 0.936,0.936c0.171,0.426 0.114,0.71 -0.17,0.851c-1.22,0.624 -2.383,1.121 -3.489,1.49c-0.425,0.113 -0.893,0.085 -1.404,-0.086c-0.511,-0.17 -0.95,-0.411 -1.319,-0.723c-0.142,-0.113 -0.262,-0.248 -0.362,-0.404c-0.099,-0.156 -0.17,-0.312 -0.212,-0.468c-0.043,-0.156 -0.029,-0.305 0.042,-0.447c0.071,-0.142 0.22,-0.255 0.447,-0.34c1.078,-0.341 2.042,-0.738 2.893,-1.192c0.738,-0.368 1.617,-0.241 2.638,0.383Z" style="fill:#fff;fill-rule:nonzero;"/></g></g></g></svg>