<?xml version="1.0" encoding="UTF-8" standalone="no"?><!DOCTYPE svg PUBLIC "-//W3C//DTD SVG 1.1//EN" "http://www.w3.org/Graphics/SVG/1.1/DTD/svg11.dtd"><svg width="100%" height="100%" viewBox="0 0 176 178" version="1.1" xmlns="http://www.w3.org/2000/svg" xmlns:xlink="http://www.w3.org/1999/xlink" xml:space="preserve" xmlns:serif="http://www.serif.com/" style="fill-rule:evenodd;clip-rule:evenodd;stroke-linejoin:round;stroke-miterlimit:2;"><rect id="ICONS-SVG-BLUE" serif:id="ICONS SVG BLUE" x="0" y="0" width="176" height="178" style="fill:none;"/><clipPath id="_clip1"><rect x="0" y="0" width="176" height="178"/></clipPath><g clip-path="url(#_clip1)"><path d="M87.594,0.286c65.205,-4.269 88.406,39.856 88.406,88.849c0,48.993 -29.665,91.97 -84.913,88.689c-45.833,-2.722 -92.397,-27.685 -91.059,-90.268c0.614,-28.7 24.221,-83.122 87.566,-87.27Z" style="fill:#444e87;"/><g id="blue_icon_notes"><path d="M56.795,46.197l-6.799,6.189l-0.393,86.565l73.099,-2.266l3.665,-7.063l-68.308,1.483l-1.264,-84.908Z" style="fill:#ffcd55;"/><path d="M56.327,45.991l69.109,0.569l1.434,72.877l2.11,8.549l-9.871,1.816l-62.477,1.711l-0.305,-85.522Z" style="fill:#ffcd55;"/><path d="M89.088,43.132l-3.833,0.001c-0.325,-2.013 -0.94,-3.71 -1.677,-4.779c-0.879,-1.276 -1.953,-1.969 -3.149,-2.015c-2.771,-0.055 -4.402,0.831 -5.344,2.066c-0.629,0.824 -1.025,1.741 -1.167,2.633c-0.135,0.851 -0.115,1.625 -0.078,2.101l-3.165,0.001c-0.299,-1.924 -0.851,-3.549 -1.52,-4.603c-0.875,-1.378 -1.982,-2.109 -3.208,-2.162c-2.924,-0.07 -4.653,1.008 -5.632,2.508c-0.921,1.414 -1.15,3.153 -1.192,4.263l-2.773,0.001c-0.76,-0.006 -1.491,0.292 -2.029,0.828c-0.494,0.492 -0.789,1.146 -0.832,1.838l-5.211,4.686c-0.528,0.481 -0.831,1.161 -0.834,1.875l-0.817,86.563c-0.004,0.808 0.321,1.583 0.899,2.146c0.579,0.564 1.362,0.868 2.17,0.843l73.1,-2.178c1.11,-0.035 2.114,-0.666 2.625,-1.651l3.184,-6.165l1.065,-0.195c1.034,-0.19 1.944,-0.799 2.514,-1.682c0.571,-0.883 0.751,-1.962 0.499,-2.983l-2.023,-8.146c-0,0 -1.779,-72.434 -1.779,-72.434c-0.037,-1.865 -1.551,-3.362 -3.416,-3.378l-11.005,0.006c-0.327,-2.069 -0.94,-3.818 -1.671,-4.926c-0.891,-1.349 -1.993,-2.065 -3.199,-2.116c-3.001,-0.07 -4.68,1.058 -5.574,2.594c-0.873,1.5 -0.955,3.36 -0.91,4.453l-2.581,0.001c-0.314,-2.064 -0.914,-3.811 -1.637,-4.92c-0.885,-1.358 -1.989,-2.079 -3.202,-2.131c-2.973,-0.07 -4.669,1.041 -5.592,2.564c-0.919,1.517 -1.032,3.404 -1.006,4.493Zm-35.633,9.536l-0.907,0.836c-0,0 -1.266,65.387 -1.564,80.783c-0.04,2.054 0.906,3.165 2.616,3.072c12.809,-0.701 66.733,-3.348 66.733,-3.348l0.368,-0.765c-0,0 -1.293,0.089 -1.488,0.094l-62.485,1.678c-0.944,0.026 -1.859,-0.33 -2.537,-0.988c-0.678,-0.657 -1.062,-1.56 -1.065,-2.505l0.329,-78.857Zm6.306,18.285l1.077,56.917l57.861,-1.859c-0,0 5.615,-1.04 5.615,-1.04l-1.135,-4.623c-0.067,-0.274 -0.104,-0.554 -0.11,-0.836l-0.71,-48.053c-4.622,0.099 -12.155,0.243 -20.552,0.332c-3.515,0.036 -7.181,0.073 -10.847,0.038c-6.28,-0.06 -12.556,-0.244 -18.076,-0.41c-5.295,-0.16 -9.891,-0.334 -13.123,-0.466Zm9.052,45.402c0,0 4.838,0.303 11.38,0.528c3.475,0.12 7.425,0.25 11.38,0.257c2.308,0.005 4.615,-0.063 6.827,-0.129c8.71,-0.262 15.932,-0.656 15.932,-0.656c1.269,0 2.3,-1.03 2.3,-2.299c-0,-1.269 -1.031,-2.3 -2.3,-2.3c0,0 -7.222,-0.393 -15.932,-0.655c-2.212,-0.067 -4.519,-0.134 -6.827,-0.13c-3.955,0.007 -7.905,0.137 -11.38,0.257c-6.542,0.226 -11.38,0.528 -11.38,0.528c-1.269,0 -2.299,1.031 -2.299,2.3c-0,1.269 1.03,2.299 2.299,2.299Zm0.829,-16.016c-0,0 4.776,0.332 11.236,0.598c3.431,0.142 7.332,0.296 11.237,0.328c2.28,0.018 4.559,-0.035 6.745,-0.088c8.604,-0.208 15.739,-0.557 15.739,-0.557c1.269,0.008 2.306,-1.016 2.314,-2.285c0.008,-1.269 -1.016,-2.306 -2.285,-2.314c-0,0 -7.13,-0.438 -15.731,-0.753c-2.185,-0.081 -4.463,-0.162 -6.743,-0.172c-3.906,-0.018 -7.808,0.088 -11.241,0.187c-6.463,0.185 -11.243,0.457 -11.243,0.457c-1.269,-0.008 -2.305,1.016 -2.313,2.285c-0.008,1.27 1.016,2.306 2.285,2.314Zm-1.926,-15.173c-0,0 5.171,0.243 12.158,0.388c3.713,0.077 7.933,0.158 12.156,0.116c2.465,-0.024 4.928,-0.12 7.29,-0.214c9.297,-0.369 17.006,-0.852 17.006,-0.852c1.269,-0.015 2.287,-1.057 2.272,-2.326c-0.014,-1.269 -1.057,-2.287 -2.326,-2.273c0,0 -7.718,-0.304 -17.021,-0.458c-2.363,-0.039 -4.828,-0.078 -7.293,-0.046c-4.222,0.056 -8.439,0.235 -12.149,0.398c-6.982,0.306 -12.146,0.668 -12.146,0.668c-1.269,0.015 -2.288,1.057 -2.273,2.326c0.014,1.269 1.057,2.288 2.326,2.273Zm-8.049,-19.155c3.24,-0.078 7.893,-0.175 13.265,-0.247c5.521,-0.073 11.8,-0.15 18.08,-0.104c3.666,0.026 7.331,0.125 10.845,0.221c8.325,0.228 15.8,0.496 20.429,0.674l-0.245,-16.607l-7.261,-0.123c-0.056,2.017 -0.209,3.925 -0.358,5.398c1.058,0.539 1.783,1.639 1.783,2.907c0,1.799 -1.461,3.26 -3.261,3.26c-1.8,0 -3.261,-1.461 -3.261,-3.26c0,-1.014 0.464,-1.921 1.191,-2.519c-0.1,-1.523 -0.26,-3.638 -0.489,-5.861l-9.577,-0.162c-0.075,2.459 -0.297,4.775 -0.484,6.369c1.009,0.555 1.693,1.628 1.693,2.859c0,1.8 -1.461,3.261 -3.261,3.261c-1.799,-0 -3.26,-1.461 -3.26,-3.261c-0,-1.104 0.55,-2.081 1.391,-2.671c-0.089,-1.584 -0.249,-4.047 -0.502,-6.632l-10.826,-0.183c-0.078,2.74 -0.359,5.31 -0.559,6.86c1.004,0.555 1.685,1.626 1.685,2.855c0,1.8 -1.461,3.261 -3.26,3.261c-1.8,-0 -3.261,-1.461 -3.261,-3.261c-0,-1.149 0.596,-2.161 1.495,-2.741c-0.084,-1.499 -0.257,-4.207 -0.548,-7.05l-10.163,-0.172c-0.005,0.169 -0.01,0.338 -0.017,0.506c-0.087,2.288 -0.307,4.475 -0.507,6.102c0.839,0.59 1.387,1.566 1.387,2.668c0,1.8 -1.461,3.261 -3.261,3.261c-1.799,0 -3.261,-1.461 -3.261,-3.261c0,-1.186 0.635,-2.225 1.583,-2.795c-0.082,-1.735 -0.22,-4.127 -0.441,-6.557l-7.088,-0.12l0.324,17.125Zm6.041,-22.868c-0.14,-0.86 -0.292,-1.612 -0.555,-2.172c-0.022,-0.048 -0.034,-0.126 -0.046,-0.188c-0.033,-0.006 -0.059,-0.015 -0.074,-0.026c-0.775,-0.07 -1.329,0.067 -1.689,0.464c-0.53,0.584 -0.816,1.335 -0.968,1.923l3.332,-0.001Zm14.573,-0.007c-0.157,-0.89 -0.314,-1.67 -0.601,-2.236c-0.022,-0.044 -0.033,-0.118 -0.046,-0.176c-0.05,-0.007 -0.082,-0.021 -0.076,-0.045c-0.762,-0.101 -1.298,-0.055 -1.649,0.274c-0.744,0.697 -0.912,1.776 -0.95,2.184l3.322,-0.001Zm15.271,-0.007c-0.166,-0.975 -0.332,-1.829 -0.631,-2.448c-0.025,-0.051 -0.038,-0.136 -0.053,-0.202c-0.044,-0.007 -0.076,-0.017 -0.087,-0.034c-0.742,-0.072 -1.262,0.043 -1.589,0.428c-0.599,0.704 -0.835,1.651 -0.927,2.257l3.287,-0.001Zm13.932,-0.007c-0.173,-0.969 -0.344,-1.818 -0.645,-2.433c-0.026,-0.053 -0.041,-0.142 -0.057,-0.209c-0.048,-0.007 -0.082,-0.018 -0.09,-0.037c-0.726,-0.075 -1.232,0.029 -1.543,0.408c-0.584,0.71 -0.794,1.67 -0.869,2.272l3.204,-0.001Zm-44.381,-2.358c-0.014,-0.061 -0.029,-0.102 -0.061,-0.072c-0.032,0.029 -0.031,0.05 -0.009,0.065l0.07,0.007l0.004,0.019c0.114,0.023 0.31,0.023 0.406,0.038c-0.143,-0.025 -0.28,-0.044 -0.41,-0.057Zm14.522,-0.076c-0.011,-0.04 -0.024,-0.062 -0.048,-0.039c-0.012,0.011 -0.018,0.021 -0.019,0.03l0.067,0.009l0.009,0.036c0.102,0.017 0.279,0.009 0.365,0.023c-0.13,-0.023 -0.254,-0.043 -0.374,-0.059Zm15.236,-0.234c-0.014,-0.056 -0.031,-0.09 -0.062,-0.061c-0.023,0.022 -0.028,0.039 -0.018,0.052l0.08,0.009l0.007,0.025c0.111,0.02 0.295,0.017 0.386,0.031c-0.137,-0.024 -0.268,-0.043 -0.393,-0.056Zm13.913,-0.003c-0.014,-0.053 -0.032,-0.083 -0.062,-0.055c-0.021,0.019 -0.027,0.035 -0.02,0.047l0.082,0.008l0.008,0.029c0.109,0.018 0.288,0.014 0.376,0.027c-0.134,-0.023 -0.262,-0.042 -0.384,-0.056Z" style="fill:#fff;"/></g></g></svg>