<?xml version="1.0" encoding="UTF-8" standalone="no"?><!DOCTYPE svg PUBLIC "-//W3C//DTD SVG 1.1//EN" "http://www.w3.org/Graphics/SVG/1.1/DTD/svg11.dtd"><svg width="100%" height="100%" viewBox="0 0 176 178" version="1.1" xmlns="http://www.w3.org/2000/svg" xmlns:xlink="http://www.w3.org/1999/xlink" xml:space="preserve" xmlns:serif="http://www.serif.com/" style="fill-rule:evenodd;clip-rule:evenodd;stroke-linejoin:round;stroke-miterlimit:2;"><rect id="ICONS-SVG-BLUE" serif:id="ICONS SVG BLUE" x="0" y="0" width="176" height="178" style="fill:none;"/><clipPath id="_clip1"><rect x="0" y="0" width="176" height="178"/></clipPath><g clip-path="url(#_clip1)"><path d="M87.594,0.286c65.205,-4.269 88.406,39.856 88.406,88.849c0,48.993 -29.665,91.97 -84.913,88.689c-45.833,-2.722 -92.397,-27.685 -91.059,-90.268c0.614,-28.7 24.221,-83.122 87.566,-87.27Z" style="fill:#444e87;"/><g id="blue_icon_AD"><path d="M44.306,64.705l89.146,0.254l9.134,71.051c0,-0 -9.464,-3.681 -16.824,0.526c-7.361,4.206 -83.598,2.628 -83.598,2.628l2.142,-74.459Z" style="fill:#c1365b;"/><path d="M93.841,28.166c-2.814,-1.213 -6.161,-1.425 -10.116,-1.509c-12.572,0.242 -18.095,6.625 -21.315,15.708c-2.097,5.918 -3.903,12.698 -3.569,19.047c0.006,0.103 0.011,0.206 0.017,0.308l-11.194,-0.007c-1.728,-0.031 -3.19,1.271 -3.358,2.992l-8.635,75.413c-0.126,1.294 0.301,2.582 1.175,3.545c0.874,0.963 2.114,1.512 3.414,1.512c-0,-0 26.65,0.414 49.73,0.577c17.618,0.124 33.153,0.082 33.153,0.082c1.555,0 3.032,-0.687 4.033,-1.878c0.346,-0.412 0.624,-0.869 0.827,-1.355l15.181,-0.211c1.511,-0.031 2.937,-0.709 3.915,-1.862c0.978,-1.153 1.414,-2.67 1.197,-4.167c0,0 -1.924,-12.8 -4.313,-27.286c-3.13,-18.984 -7.015,-40.85 -7.015,-40.85c-0.258,-1.78 -1.722,-3.14 -3.516,-3.266l-5.13,-0.194c0.672,-3.366 1.487,-8.944 1.062,-14.777c-0.314,-4.308 -1.888,-8.869 -3.983,-12.712c-3.325,-6.099 -8.634,-10.093 -18.664,-11.057c-5.158,-0.236 -9.517,0.192 -12.896,1.947Zm-34.291,40.602l-10.563,-0.818c-0,-0 -3.728,67.929 -3.728,67.929c8.799,-0.126 27.733,-0.383 44.731,-0.502c10.182,-0.072 19.669,-0.089 25.863,-0.09l-0.097,-10.462c-0.209,-1.637 -0.6,-28.861 -0.848,-34.393c-0.345,-7.7 0.4,-16.23 0.148,-20.674l-10.165,0.636c-0.524,2.31 -1.064,4.312 -1.511,5.852c1.09,1.129 1.761,2.666 1.761,4.358c0,3.464 -2.812,6.276 -6.276,6.276c-3.464,0 -6.276,-2.812 -6.276,-6.276c-0,-2.678 1.68,-4.966 4.044,-5.867c0.244,-1.233 0.527,-2.806 0.79,-4.611l-10.067,-0.361c-0.382,0.242 -0.82,0.41 -1.297,0.479c-0.896,0.129 -1.762,-0.114 -2.438,-0.613l-16.454,-0.59c0.112,2.018 0.279,3.815 0.444,5.273c2.37,0.897 4.057,3.189 4.057,5.872c0,3.464 -2.812,6.276 -6.276,6.276c-3.464,-0 -6.276,-2.812 -6.276,-6.276c-0,-1.65 0.638,-3.152 1.68,-4.273c-0.396,-1.869 -0.86,-4.329 -1.246,-7.145Zm62.083,2.66c0.387,4.554 0.946,11.392 1.433,18.362c0.393,5.624 0.728,11.333 0.914,16.009c0.144,3.882 0.655,8.689 1.255,13.44c0.593,4.708 1.289,9.36 1.87,13.032l9.95,-0.268c-0.69,-5.111 -1.739,-13.017 -2.799,-21.52c-1.857,-14.891 -3.771,-31.594 -4.523,-38.224l-8.1,-0.831Zm-0.278,-6.927c0.361,-3.731 0.726,-11.951 -1.978,-18.878c-1.935,-4.959 -5.839,-9.038 -13.535,-9.335c-1.025,-0.095 -1.984,-0.107 -2.882,-0.046c1.167,1.969 2.051,4.152 2.692,6.481c1.315,4.77 1.566,10.178 1.162,15.394c-0.095,1.227 -0.223,2.442 -0.375,3.633l10.282,0.006c1.817,0.033 3.383,1.138 4.072,2.724l0.562,0.021Zm-27.288,-23.48c-0.089,0.122 -0.176,0.246 -0.261,0.371c-4.149,6.087 -4.985,14.943 -5.067,20.347l9.505,0.006c0.246,-5.371 -0.076,-11.255 -1.77,-16.199c-0.577,-1.682 -1.36,-3.221 -2.407,-4.525Zm-8.782,-4.243c-0.502,-0.031 -1.021,-0.041 -1.56,-0.029c-7.383,-0.142 -11.411,3.741 -13.621,8.95c-2.064,4.868 -2.852,10.674 -3.031,16.026l14.461,0.009c-0.245,-2.675 -0.405,-6.066 -0.198,-9.665c0.298,-5.171 1.446,-10.7 3.949,-15.291Z" style="fill:#fff;"/><path d="M78.073,114.796c0.707,-0.125 1.135,-0.482 1.356,-0.95c0.251,-0.529 0.215,-1.152 -0.337,-1.819c-0.41,-0.516 -0.943,-0.912 -1.607,-1.176c-0.136,-0.927 -0.328,-2.179 -0.576,-3.757c-0.299,-1.902 -0.516,-3.328 -0.652,-4.279c-0.001,-0.005 -0.002,-0.01 -0.003,-0.016c-0.135,-0.842 -0.333,-2.12 -0.591,-3.833c-0.258,-1.714 -0.456,-3.008 -0.592,-3.881c-0.088,-0.634 -0.418,-1.186 -1.032,-1.631c-0.461,-0.333 -0.959,-0.57 -1.493,-0.71c-0.34,-0.158 -0.843,-0.237 -1.518,-0.146c-0.633,0.086 -1.017,0.362 -1.229,0.684c-0.177,0.268 -0.264,0.597 -0.207,0.997l0.309,2.091c-0.589,0.124 -0.957,0.469 -1.145,0.907c-0.002,0.006 -0.005,0.012 -0.007,0.017c-2.654,6.557 -4.674,11.535 -6.061,14.936c-0.062,0.009 -0.128,0.017 -0.198,0.026c-0.26,0.034 -0.447,0.054 -0.56,0.054c-0.039,0 -0.078,0.003 -0.117,0.008c-0.783,0.104 -1.248,0.475 -1.483,0.971c-0.248,0.523 -0.219,1.132 0.276,1.792c0,0 0,0 0,0c0.178,0.238 0.397,0.456 0.66,0.652c-0.45,1.094 -0.899,2.225 -1.348,3.393c-0.26,0.638 -0.153,1.298 0.485,1.936c0.406,0.407 0.864,0.712 1.37,0.92c0.26,0.127 0.555,0.234 0.882,0.315c-0,0 -0,0 -0,0c0.375,0.094 0.778,0.116 1.209,0.06c0.7,-0.091 1.114,-0.45 1.307,-0.989c0.268,-0.615 0.663,-1.562 1.179,-2.826c0.4,-0.98 0.72,-1.778 0.959,-2.395c0.735,-0.085 1.713,-0.208 2.933,-0.37c1.039,-0.138 1.9,-0.248 2.583,-0.33c0.097,0.652 0.219,1.466 0.365,2.441c0.218,1.462 0.897,5.507 0.897,5.507c0.123,0.616 0.459,1.148 1.034,1.579c0.451,0.339 0.948,0.579 1.49,0.72c0.334,0.155 0.843,0.235 1.529,0.145c0.661,-0.087 1.048,-0.38 1.249,-0.706c0.17,-0.276 0.246,-0.613 0.162,-1.021l0.341,2.239c-1.034,-6.84 -1.341,-8.473 -1.819,-11.555Zm13.686,-16.819l0.13,0.056c0.149,0.042 0.278,0.084 0.387,0.127c0.079,0.044 0.173,0.09 0.282,0.133l0.203,0.111c0.499,0.31 0.881,0.582 1.145,0.822c0.011,0.009 0.022,0.019 0.033,0.028c0.396,0.326 0.743,0.722 1.046,1.188c0.01,0.015 0.02,0.031 0.032,0.045c0.612,0.825 0.98,1.718 1.098,2.684c0.12,0.987 0.051,1.913 -0.213,2.78c-0.28,0.915 -0.721,1.862 -1.319,2.841c-0.613,1.004 -1.245,1.885 -1.897,2.642c-0.663,0.77 -1.394,1.54 -2.19,2.31c-0.52,0.496 -1.012,0.948 -1.476,1.354c0.529,-4.562 1.017,-9.102 1.464,-13.623c0.046,-0.41 -0.148,-1.022 -0.85,-1.677c-0.009,-0.009 -0.018,-0.017 -0.028,-0.025c-0.466,-0.4 -1.011,-0.689 -1.639,-0.863c-0.415,-0.174 -0.923,-0.232 -1.513,-0.137c-0.875,0.141 -1.341,0.636 -1.454,1.426c-0.002,0.013 -0.003,0.026 -0.004,0.038c-0.606,6.11 -1.288,12.207 -2.047,18.291c-0.073,0.016 -0.145,0.03 -0.218,0.043c-0.782,0.112 -1.236,0.471 -1.467,0.933c-0.253,0.506 -0.238,1.116 0.268,1.79c0.002,0.003 0.004,0.006 0.006,0.008c0.349,0.454 0.847,0.847 1.51,1.161c0.718,0.34 1.366,0.427 1.934,0.315c3.137,-0.516 6.263,-2.199 9.35,-5.085c3.251,-2.997 5.384,-5.78 6.43,-8.324c0,-0.001 0,-0.001 0,-0.001c0.683,-1.663 0.942,-3.363 0.778,-5.1c-0.164,-1.745 -0.765,-3.365 -1.808,-4.856l-0,-0c-0.644,-0.936 -1.425,-1.792 -2.346,-2.567c-0.917,-0.771 -1.906,-1.41 -2.968,-1.92c-1.052,-0.504 -2.14,-0.886 -3.265,-1.146c-4.132,-0.997 -8.509,-0.444 -13.125,1.693c-0.008,0.004 -0.016,0.008 -0.024,0.012c-0.269,0.134 -0.465,0.277 -0.599,0.411c-0.022,0.022 -0.042,0.045 -0.062,0.069c-0.611,0.752 -0.537,1.819 1.015,2.853c0.003,0.002 0.006,0.004 0.01,0.007c1.259,0.814 2.303,0.935 3.081,0.602c0.005,-0.003 0.011,-0.005 0.016,-0.007c3.259,-1.475 6.139,-2.092 8.648,-1.807c0.003,0 0.007,0.001 0.011,0.001c0.485,0.049 1.03,0.172 1.635,0.364Zm-22.54,13.411c0.444,-1.087 0.987,-2.422 1.628,-4.006c0.197,-0.488 0.379,-0.936 0.544,-1.345c0.064,0.427 0.132,0.882 0.205,1.367c0.22,1.482 0.403,2.692 0.55,3.631l-2.927,0.353Z" style="fill:#fff;fill-rule:nonzero;"/></g></g></svg>