<?xml version="1.0" encoding="UTF-8" standalone="no"?><!DOCTYPE svg PUBLIC "-//W3C//DTD SVG 1.1//EN" "http://www.w3.org/Graphics/SVG/1.1/DTD/svg11.dtd"><svg width="100%" height="100%" viewBox="0 0 176 178" version="1.1" xmlns="http://www.w3.org/2000/svg" xmlns:xlink="http://www.w3.org/1999/xlink" xml:space="preserve" xmlns:serif="http://www.serif.com/" style="fill-rule:evenodd;clip-rule:evenodd;stroke-linejoin:round;stroke-miterlimit:2;"><rect id="ICONS-SVG-BLUE" serif:id="ICONS SVG BLUE" x="0" y="0" width="176" height="178" style="fill:none;"/><clipPath id="_clip1"><rect x="0" y="0" width="176" height="178"/></clipPath><g clip-path="url(#_clip1)"><path d="M87.594,0.286c65.205,-4.269 88.406,39.856 88.406,88.849c0,48.993 -29.665,91.97 -84.913,88.689c-45.833,-2.722 -92.397,-27.685 -91.059,-90.268c0.614,-28.7 24.221,-83.122 87.566,-87.27Z" style="fill:#444e87;"/><g id="blue_icon_settings"><path d="M79.377,49.064c0.769,-9.323 2.448,-16.301 8.523,-16.124c7.975,0.231 6.722,7.324 8.035,17.73c4.882,1.714 7.674,3.161 12.097,6.463c8.082,-7.14 15.029,-10.901 19.322,-6.442c5.587,5.802 2.301,11.826 -4.41,20.7c3.869,5.176 5.77,8.524 7.069,14.387c9.478,0.868 15.681,1.389 15.03,9.07c-0.761,8.969 -6.074,8.546 -16.116,9.68c-1.889,4.874 -3.355,5.753 -6.849,9.633c4.461,5.752 9.096,12.66 2.489,17.334c-6.336,4.483 -7.934,3.407 -17.547,-5.275c-2.08,1.863 -5.074,3.629 -8.98,3.836c-0.892,12.48 -0.035,14.354 -8.868,15.239c-7.828,0.785 -6.966,-2.718 -8.466,-15.511c-0.575,0.736 -7.05,-1.179 -9.71,-3.64c-11.192,10.154 -11.951,13.344 -18.796,7.35c-4.839,-4.237 -4.098,-7.13 4.68,-18.491c-2.661,-3.13 -4.857,-6.593 -6.475,-10.274c-5.485,0.951 -12.251,-0.149 -12.251,-0.149c-4.45,-1.152 -6.504,1.138 -7.122,-6.98c-0.619,-8.123 5.651,-9.871 16.432,-11.101c0.191,-2.591 0.561,-4.133 1.377,-6.74c1.208,-3.857 2.794,-7.512 4.71,-10.871c-7.668,-10.069 -10.27,-13.947 -5.257,-18.64c4.952,-4.636 9.169,-2.535 17.732,5.106c4.351,-3.395 7.988,-5.37 13.351,-6.29Zm12.434,20.705c13.974,0.932 15.683,13.959 15.012,21.864c-0.892,10.497 -10.802,15.617 -21.802,14.696c-14.614,-1.224 -16.59,-16.76 -13.244,-25.314c3.908,-9.99 14.914,-11.587 20.034,-11.246Z" style="fill:#c1365b;"/><path d="M76.544,46.524c-2.035,0.503 -3.858,1.175 -5.605,2.033c-1.618,0.795 -3.172,1.752 -4.773,2.895c-3.76,-3.193 -6.75,-5.219 -9.329,-6.082c-3.865,-1.292 -7.117,-0.566 -10.585,2.696c-2.886,2.715 -3.832,5.311 -3.425,8.292c0.428,3.133 2.892,7.029 7.236,12.795c-0.658,1.261 -1.273,2.557 -1.843,3.884c-0.812,1.891 -1.533,3.846 -2.156,5.852c-0.43,1.384 -0.742,2.49 -0.974,3.59c-0.099,0.473 -0.185,0.945 -0.258,1.436c-5.181,0.71 -9.236,1.703 -11.942,3.463c-3.331,2.166 -5.097,5.337 -4.699,10.438c0.333,4.274 1.248,6.285 2.257,7.351c0.852,0.9 1.851,1.379 3.082,1.615c1.007,0.192 2.297,0.119 3.915,0.536c0.085,0.021 0.17,0.039 0.256,0.053c-0,0 2.9,0.47 6.509,0.549c1.444,0.031 3,-0 4.532,-0.144c0.654,1.304 1.378,2.578 2.165,3.818c0.754,1.188 1.567,2.345 2.434,3.467c-4.556,6.091 -6.601,9.872 -6.838,12.685c-0.249,2.947 0.975,5.27 3.889,7.813c3.539,3.091 6.026,3.993 8.405,3.598c1.284,-0.213 2.614,-0.825 4.113,-1.941c2.004,-1.492 4.502,-4.049 8.303,-7.577c2.148,1.282 4.875,2.312 6.825,2.747l0.238,0.05c0.361,3.327 0.588,5.931 0.928,7.925c0.42,2.462 1.085,4.171 2.053,5.336c1.515,1.821 3.866,2.714 8.184,2.278c5.593,-0.566 8.032,-1.882 9.396,-4.455c1.086,-2.047 1.329,-5.385 1.725,-11.082c1.21,-0.241 2.334,-0.607 3.37,-1.057c1.088,-0.473 2.079,-1.039 2.971,-1.654c4.154,3.694 6.847,5.779 9.124,6.578c3.19,1.119 5.897,0.368 10.102,-2.603c3.832,-2.707 4.828,-6.002 4.335,-9.457c-0.459,-3.216 -2.512,-6.687 -4.854,-9.909c1.437,-1.538 2.49,-2.636 3.435,-4.021c0.617,-0.906 1.193,-1.927 1.783,-3.246c5.331,-0.574 9.296,-0.968 11.969,-2.543c2.755,-1.623 4.559,-4.293 5.004,-9.444c0.435,-5.029 -1.402,-7.792 -4.648,-9.525c-2.53,-1.35 -6.284,-1.912 -10.889,-2.376c-0.635,-2.362 -1.406,-4.359 -2.403,-6.308c-0.911,-1.779 -2.016,-3.517 -3.4,-5.461c3.209,-4.372 5.457,-8.128 6.25,-11.496c0.948,-4.032 0.133,-7.665 -3.279,-11.226c-2.4,-2.504 -5.367,-3.273 -8.807,-2.593c-3.645,0.721 -8.015,3.378 -12.74,7.3c-1.493,-1.047 -2.845,-1.891 -4.22,-2.632c-1.553,-0.838 -3.137,-1.544 -4.992,-2.252c-0.692,-6.342 -0.821,-11.361 -2.613,-14.353c-1.498,-2.5 -3.86,-4.106 -8.073,-4.238c-3.404,-0.107 -5.886,1.292 -7.72,3.823c-2.007,2.768 -3.111,7.305 -3.723,12.779Zm3.317,80.684c-1.73,-0.213 -5.324,-1.492 -7.017,-3.061c-1.035,-0.958 -2.631,-0.966 -3.676,-0.018c-5.024,4.55 -7.851,7.681 -10.126,9.12c-1.7,1.077 -2.741,0.192 -5.034,-1.82c-1.652,-1.452 -2.421,-2.579 -1.662,-4.57c0.912,-2.39 3.124,-5.496 6.737,-10.154c0.804,-1.041 0.77,-2.503 -0.082,-3.505c-1.235,-1.459 -2.363,-2.994 -3.37,-4.593c-1.013,-1.609 -1.904,-3.283 -2.658,-5.007c-0.52,-1.181 -1.777,-1.855 -3.048,-1.635c-1.824,0.313 -3.804,0.369 -5.582,0.323c-2.773,-0.07 -5.071,-0.397 -5.614,-0.48c-1.654,-0.412 -3.694,-0.589 -4.182,-0.627c-0.069,-0.161 -0.197,-0.483 -0.265,-0.76c-0.186,-0.757 -0.314,-1.746 -0.41,-3.037c-0.186,-2.504 0.494,-4.14 2.132,-5.197c2.553,-1.645 6.61,-2.233 11.788,-2.812c1.382,-0.158 2.457,-1.276 2.559,-2.664c0.088,-1.165 0.215,-2.091 0.416,-3.022c0.202,-0.938 0.478,-1.88 0.851,-3.061c0.571,-1.808 1.23,-3.568 1.97,-5.271c0.755,-1.735 1.595,-3.41 2.515,-5.013c0.584,-1.024 0.499,-2.298 -0.215,-3.235c-3.381,-4.462 -5.754,-7.602 -6.779,-10.166c-0.714,-1.785 -0.319,-3.072 1.228,-4.514c1.523,-1.419 2.891,-1.931 4.579,-1.358c2.461,0.836 5.263,3.12 9.088,6.549c1.095,0.978 2.733,1.032 3.89,0.129c1.982,-1.539 3.797,-2.764 5.728,-3.704c1.889,-0.918 3.889,-1.554 6.274,-1.959c1.379,-0.237 2.422,-1.376 2.537,-2.77c0.348,-4.341 0.849,-8.139 2.056,-10.785c0.708,-1.553 1.664,-2.618 3.323,-2.573c2.165,0.058 3.157,0.966 3.65,2.607c0.899,2.999 0.865,7.318 1.528,12.477c0.141,1.116 0.901,2.056 1.962,2.429c2.327,0.811 4.149,1.552 5.922,2.497c1.707,0.911 3.369,2.008 5.402,3.518c1.114,0.832 2.659,0.768 3.7,-0.152c3.705,-3.289 7.122,-5.85 10.142,-7.045c2.043,-0.808 3.821,-0.981 5.158,0.402c1.821,1.883 2.353,3.783 1.859,5.926c-0.739,3.206 -3.194,6.743 -6.448,11.068c-0.76,1.005 -0.764,2.391 -0.009,3.401c1.78,2.372 3.128,4.331 4.176,6.361c1.066,2.064 1.813,4.2 2.424,6.936c0.263,1.19 1.266,2.073 2.479,2.184c4.602,0.414 8.375,0.626 10.785,1.902c1.38,0.731 1.92,2.011 1.743,4.145c-0.227,2.727 -0.837,4.308 -2.292,5.172c-2.444,1.451 -6.245,1.439 -11.373,2.026c-1.011,0.114 -1.874,0.78 -2.242,1.728c-0.63,1.636 -1.196,2.76 -1.84,3.711c-1.121,1.653 -2.445,2.827 -4.479,5.091c-0.88,0.978 -0.934,2.445 -0.128,3.484c2.28,2.936 4.731,6.147 5.17,9.189c0.227,1.58 -0.343,3.032 -2.095,4.273c-2.232,1.582 -3.501,2.517 -5.197,1.925c-2.169,-0.758 -4.65,-3.077 -8.987,-6.989c-1.021,-0.921 -2.572,-0.925 -3.596,-0.007c-0.927,0.832 -2.071,1.644 -3.437,2.24c-1.14,0.497 -2.437,0.843 -3.891,0.922c-1.351,0.071 -2.436,1.137 -2.533,2.486c-0.423,5.899 -0.25,9.217 -1.271,11.136c-0.3,0.565 -0.832,0.811 -1.606,1.034c-0.932,0.268 -2.105,0.434 -3.584,0.581c-2.323,0.231 -3.447,0.227 -3.951,-1.32c-0.759,-2.328 -0.889,-6.112 -1.555,-11.827c-0.128,-1.092 -0.902,-1.999 -1.961,-2.295c-0.529,-0.148 -1.077,-0.13 -1.576,0.034Zm12.154,-60.499c-3.259,-0.189 -8.618,0.321 -13.454,2.829c-3.901,2.025 -7.481,5.291 -9.443,10.437c-1.968,5.136 -2.237,12.468 0.393,18.43c2.43,5.508 7.198,9.947 15.286,10.596c5.876,0.506 11.461,-0.598 15.811,-3.107c4.993,-2.88 8.423,-7.59 9.008,-14.024c0.446,-4.769 0.035,-11.203 -2.821,-16.303c-2.595,-4.635 -7.116,-8.277 -14.78,-8.858l0,0Zm-0.408,6.12c5.153,0.297 8.303,2.565 10.1,5.647c2.336,4.006 2.612,9.13 2.322,12.92c-0.353,4.473 -2.703,7.775 -6.155,9.804c-3.456,2.032 -7.936,2.839 -12.629,2.457c-5.667,-0.495 -9.046,-3.559 -10.709,-7.438c-1.973,-4.601 -1.667,-10.239 -0.1,-14.164c1.448,-3.607 4.029,-5.855 6.807,-7.237c3.744,-1.861 7.866,-2.177 10.364,-1.989l0,0Z" style="fill:#fff;"/><path d="M93.339,116.237c-0.945,0.141 -1.896,0.243 -2.848,0.308c-0.822,0.055 -1.444,0.767 -1.388,1.589c0.055,0.822 0.768,1.444 1.589,1.389c1.033,-0.07 2.063,-0.181 3.087,-0.334c0.815,-0.122 1.378,-0.882 1.256,-1.697c-0.122,-0.814 -0.882,-1.377 -1.696,-1.255Zm-11.389,-0.175c-0.939,-0.176 -1.863,-0.393 -2.769,-0.652c-0.792,-0.227 -1.619,0.232 -1.846,1.024c-0.226,0.792 0.233,1.619 1.024,1.846c0.995,0.284 2.011,0.523 3.041,0.716c0.809,0.152 1.59,-0.382 1.742,-1.192c0.151,-0.81 -0.383,-1.59 -1.192,-1.742Zm22.188,-3.362c-0.83,0.45 -1.686,0.861 -2.562,1.234c-0.758,0.322 -1.112,1.2 -0.789,1.958c0.322,0.758 1.199,1.111 1.957,0.789c0.963,-0.41 1.904,-0.862 2.815,-1.355c0.725,-0.393 0.994,-1.299 0.602,-2.024c-0.392,-0.724 -1.299,-0.994 -2.023,-0.602Zm-32.768,-0.702c-0.814,-0.501 -1.593,-1.035 -2.335,-1.602c-0.655,-0.5 -1.592,-0.375 -2.092,0.279c-0.501,0.655 -0.375,1.592 0.279,2.093c0.821,0.627 1.684,1.219 2.586,1.773c0.702,0.431 1.622,0.211 2.053,-0.49c0.431,-0.702 0.211,-1.622 -0.491,-2.053Zm41.22,-6.591c-0.542,0.761 -1.132,1.483 -1.764,2.168c-0.559,0.605 -0.521,1.55 0.084,2.109c0.605,0.559 1.55,0.521 2.109,-0.084c0.717,-0.777 1.386,-1.597 2.002,-2.46c0.478,-0.671 0.321,-1.604 -0.349,-2.082c-0.671,-0.478 -1.604,-0.322 -2.082,0.349Zm-49.295,-1.15c-0.51,-0.783 -0.971,-1.596 -1.381,-2.436c-0.361,-0.741 -1.256,-1.048 -1.996,-0.687c-0.74,0.361 -1.048,1.256 -0.687,1.996c0.464,0.95 0.985,1.869 1.561,2.755c0.45,0.69 1.375,0.886 2.065,0.437c0.691,-0.449 0.887,-1.374 0.438,-2.065Zm53.156,-9.22c-0.111,0.951 -0.268,1.879 -0.469,2.775c-0.001,0.004 -0.002,0.008 -0.003,0.012c-0.181,0.803 0.324,1.603 1.128,1.784c0.803,0.181 1.603,-0.324 1.784,-1.128c0.001,-0.004 0.002,-0.008 0.003,-0.013c0.224,-0.996 0.398,-2.027 0.522,-3.084c0.095,-0.818 -0.491,-1.56 -1.31,-1.655c-0.818,-0.096 -1.56,0.491 -1.655,1.309Zm-56.763,-1.278c-0.082,-0.92 -0.113,-1.859 -0.09,-2.814c0.019,-0.823 -0.633,-1.508 -1.457,-1.527c-0.823,-0.02 -1.508,0.633 -1.527,1.456c-0.026,1.069 0.009,2.12 0.101,3.15c0.073,0.821 0.798,1.428 1.619,1.354c0.82,-0.073 1.427,-0.798 1.354,-1.619Zm56.093,-10.085c0.211,0.937 0.384,1.878 0.519,2.819c0.117,0.815 0.873,1.382 1.689,1.265c0.815,-0.116 1.383,-0.873 1.266,-1.689c-0.146,-1.018 -0.333,-2.037 -0.562,-3.051c-0.181,-0.804 -0.981,-1.309 -1.784,-1.128c-0.804,0.181 -1.309,0.981 -1.128,1.784Zm-54.699,-1.09c0.302,-0.932 0.634,-1.825 0.994,-2.679c0.32,-0.759 -0.037,-1.635 -0.796,-1.955c-0.759,-0.32 -1.635,0.037 -1.955,0.796c-0.392,0.93 -0.753,1.902 -1.083,2.916c-0.254,0.784 0.176,1.626 0.959,1.88c0.784,0.255 1.626,-0.175 1.881,-0.958Zm50.388,-9.422c0.511,0.794 0.983,1.617 1.418,2.462c0.376,0.732 1.277,1.021 2.01,0.645c0.732,-0.377 1.021,-1.278 0.644,-2.01c-0.478,-0.931 -0.998,-1.836 -1.56,-2.711c-0.446,-0.693 -1.37,-0.894 -2.063,-0.448c-0.693,0.445 -0.894,1.369 -0.449,2.062Zm-44.993,-0.483c0.618,-0.723 1.268,-1.399 1.947,-2.031c0.603,-0.562 0.637,-1.507 0.076,-2.11c-0.561,-0.603 -1.507,-0.636 -2.11,-0.075c-0.76,0.708 -1.489,1.466 -2.181,2.276c-0.536,0.626 -0.462,1.569 0.164,2.104c0.626,0.536 1.569,0.462 2.104,-0.164Zm35.041,-7.287c0.81,0.465 1.582,0.982 2.316,1.545c0.653,0.501 1.591,0.378 2.092,-0.276c0.502,-0.653 0.378,-1.591 -0.276,-2.092c-0.838,-0.644 -1.72,-1.234 -2.646,-1.766c-0.715,-0.41 -1.628,-0.163 -2.038,0.552c-0.41,0.714 -0.163,1.627 0.552,2.037Zm-25.054,0.601c0.86,-0.393 1.741,-0.746 2.643,-1.062c0.777,-0.272 1.187,-1.125 0.914,-1.902c-0.272,-0.777 -1.125,-1.187 -1.902,-0.914c-0.987,0.346 -1.953,0.733 -2.895,1.163c-0.75,0.342 -1.08,1.228 -0.738,1.978c0.342,0.749 1.229,1.079 1.978,0.737Zm13.045,-2.954c0.954,-0.114 1.917,-0.201 2.889,-0.262c0.822,-0.052 1.447,-0.761 1.395,-1.583c-0.051,-0.822 -0.761,-1.448 -1.583,-1.396c-1.028,0.065 -2.047,0.156 -3.056,0.278c-0.818,0.098 -1.403,0.841 -1.305,1.659c0.099,0.818 0.842,1.403 1.66,1.304Z" style="fill:#fff;"/></g></g></svg>