<?xml version="1.0" encoding="UTF-8" standalone="no"?><!DOCTYPE svg PUBLIC "-//W3C//DTD SVG 1.1//EN" "http://www.w3.org/Graphics/SVG/1.1/DTD/svg11.dtd"><svg width="100%" height="100%" viewBox="0 0 176 178" version="1.1" xmlns="http://www.w3.org/2000/svg" xmlns:xlink="http://www.w3.org/1999/xlink" xml:space="preserve" xmlns:serif="http://www.serif.com/" style="fill-rule:evenodd;clip-rule:evenodd;stroke-linejoin:round;stroke-miterlimit:2;"><rect id="ICONS-SVG-BLUE" serif:id="ICONS SVG BLUE" x="0" y="0" width="176" height="178" style="fill:none;"/><clipPath id="_clip1"><rect x="0" y="0" width="176" height="178"/></clipPath><g clip-path="url(#_clip1)"><path d="M87.594,0.286c65.205,-4.269 88.406,39.856 88.406,88.849c0,48.993 -29.665,91.97 -84.913,88.689c-45.833,-2.722 -92.397,-27.685 -91.059,-90.268c0.614,-28.7 24.221,-83.122 87.566,-87.27Z" style="fill:#444e87;"/><g id="blue_icon_twitter"><path d="M134.136,50.66c0,-0 -7.772,-7.7 -18.248,-8.429c-9.398,-0.654 -27.937,3.521 -24.819,29.1c-19.029,-0.356 -36.082,-8.062 -50.195,-26.707c0,-0 -9.207,15.317 4.01,34.204c-0,0 -11.132,-7.019 -10.39,-0.773c0.743,6.246 6.232,16.983 19.449,25.163c-0,-0 -14.013,-1.535 -11.043,3.521c2.97,5.056 12.231,11.796 22.478,12.837c-0,0 -5.08,7.853 -24.433,6.288c-14.461,-1.169 24.946,29.709 66.312,14.235c28.59,-10.695 43.957,-40.004 33.265,-70.789c0,0 11.275,-6.603 12.029,-14.425c0,-0 -6.237,1.487 -8.91,2.231c-0,-0 4.566,-8.019 3.378,-9.952c-1.188,-1.934 -12.883,3.496 -12.883,3.496Z" style="fill:#00dea7;"/><path d="M42.935,99.829c-0.974,0.343 -1.797,0.782 -2.404,1.277c-1.082,0.882 -1.733,1.983 -1.994,3.235c-0.254,1.222 -0.157,2.725 0.859,4.462c1.916,3.274 6.026,7.235 11.41,10.246c1.254,0.702 2.577,1.353 3.953,1.935c-0.492,0.126 -1.018,0.244 -1.574,0.352c-3.084,0.597 -6.994,0.857 -11.912,0.47c-3.978,-0.314 -5.957,1.348 -6.76,2.748c-0.92,1.604 -1.135,4.434 1.442,7.457c3.153,3.698 11.885,9.399 23.876,12.945c13.409,3.965 30.913,5.371 48.714,-1.404c15.346,-5.867 27.059,-16.778 33.357,-30.367c5.822,-12.563 7.057,-27.416 2.199,-42.655c2.008,-1.428 5.097,-3.876 7.486,-6.889c2.01,-2.534 3.518,-5.452 3.785,-8.483c0.088,-0.912 -0.27,-1.811 -0.96,-2.413c-0.69,-0.602 -1.627,-0.833 -2.517,-0.621l-3.241,0.842c0.433,-1.082 0.806,-2.171 1.009,-3.111c0.382,-1.77 0.15,-3.229 -0.386,-4.083c-0.392,-0.624 -0.978,-1.147 -1.837,-1.432c-0.778,-0.258 -2.027,-0.317 -3.528,-0.009c-2.833,0.581 -7.067,2.355 -9.312,3.348c-1.5,-1.277 -4.219,-3.357 -7.777,-5.103c-3.051,-1.498 -6.715,-2.733 -10.747,-3.051c-6.34,-0.5 -16.369,1.067 -22.66,8.573c-3.636,4.338 -6.098,10.701 -5.716,19.946c-8.239,-0.641 -16.051,-2.817 -23.342,-6.874c-7.462,-4.15 -14.36,-10.28 -20.637,-18.707c-0.716,-0.946 -1.854,-1.475 -3.037,-1.412c-1.184,0.064 -2.259,0.711 -2.87,1.728c-0,-0 -4.992,8.024 -3.418,19.96c0.364,2.76 1.083,5.736 2.311,8.872c-0.052,-0.001 -0.103,-0.003 -0.154,-0.003c-2.194,-0.023 -3.852,0.859 -4.904,2.334c-0.715,1.003 -1.241,2.455 -1.001,4.571c0.409,3.605 2.125,8.547 5.718,13.743c1.728,2.497 3.899,5.065 6.569,7.573Zm101.382,-51.192l-3.068,7.113c-0.553,0.97 -0.466,2.179 0.22,3.06c0.685,0.881 1.834,1.261 2.909,0.962l3.516,-0.847c-0.259,0.363 -0.534,0.719 -0.818,1.065c-3.281,3.994 -8.069,6.727 -8.069,6.727c-1.237,0.725 -1.79,2.225 -1.319,3.58c4.855,14.366 3.755,28.34 -1.873,40.001c-5.745,11.906 -16.229,21.366 -29.846,26.348c-10.179,3.736 -20.215,4.5 -29.259,3.64c-12.886,-1.224 -23.761,-5.775 -30.142,-9.93l-0.32,-0.205c4.696,-0.021 8.424,-0.617 11.356,-1.436c8.651,-2.418 11.219,-6.904 11.219,-6.904c0.777,-1.202 0.874,-2.722 0.255,-4.013c-0.618,-1.291 -1.863,-2.166 -3.286,-2.311c-3.976,-0.398 -7.779,-1.79 -11.013,-3.587c-2.64,-1.467 -4.914,-3.185 -6.537,-4.876c2.52,-0.156 5.264,0.192 5.264,0.192c1.866,0.205 3.625,-0.913 4.235,-2.69c0.611,-1.778 -0.09,-3.742 -1.687,-4.73c-4.889,-3 -8.643,-6.373 -11.425,-9.718c-3.004,-3.612 -4.872,-7.147 -5.755,-10.057c0.159,0.058 0.309,0.117 0.442,0.175c1.897,0.835 3.541,1.855 3.541,1.855c1.533,0.966 3.533,0.717 4.782,-0.597c1.248,-1.313 1.399,-3.326 0.359,-4.812c-3.833,-5.409 -5.642,-10.488 -6.284,-14.918c-0.578,-3.997 -0.216,-7.433 0.37,-10.027c5.947,6.694 12.324,11.74 19.072,15.355c9.296,4.98 19.292,7.277 29.855,7.389c0.9,0.016 1.762,-0.358 2.364,-1.027c0.603,-0.668 0.886,-1.566 0.777,-2.46c-1.181,-9.048 0.531,-15.148 3.761,-19.143c4.847,-5.994 12.791,-7.176 17.787,-6.875c3.316,0.201 6.337,1.18 8.865,2.363c4.756,2.226 7.799,5.155 7.799,5.155c0.748,0.741 1.877,0.939 2.832,0.496c0,-0 6.197,-3.854 9.121,-4.313Zm0.469,-0.043c0.631,-0.013 1.023,0.215 1.026,0.796c0.004,0.606 -0.799,-0.438 -1.026,-0.796Z" style="fill:#fff;"/></g></g></svg>